<?xml version="1.0" encoding="utf-8"?>
<!-- Generator: Adobe Illustrator 23.0.1, SVG Export Plug-In . SVG Version: 6.00 Build 0)  -->
<svg version="1.1" id="Layer_1" xmlns="http://www.w3.org/2000/svg" xmlns:xlink="http://www.w3.org/1999/xlink" x="0px" y="0px"
	 viewBox="0 0 200 200" style="enable-background:new 0 0 200 200;" xml:space="preserve">
<style type="text/css">
	.st0{fill:#F3E820;}
</style>
<g>
	<g>
		<path class="st0" d="M182,109.3c-0.7,2.8-1.6,5.5-3.7,7.7c-2.7,2.8-6,3.8-9.8,3.8c-20.8,0-41.6,0-62.4,0c-1.1,0-2.3,0.3-3.3,0.8
			c-9.1,5-18.2,10-27.3,15c-0.5,0.3-1,0.6-1.6,0.7c-1.2,0.3-2.3,0-2.8-1.2c-0.5-1.1-0.3-2.2,0.7-3c0.5-0.4,1-0.6,1.5-0.9
			c6.3-3.5,12.7-7,19-10.5c0.5-0.3,0.9-0.5,1.7-1H74.2c-7.1,5.4-14.5,11-21.8,16.5c0.1,0.1,0.1,0.3,0.2,0.4c0.4,0.1,0.8,0.2,1.2,0.2
			c3.4-0.1,6.8-0.3,10.2-0.5c1.5-0.1,2.6,0.5,2.9,1.8c0.3,1.3-0.4,2.5-1.9,2.8c-1.6,0.4-3.3,0.6-4.9,0.7c-2,0.1-3.9,0-5.9,0
			c-3.4,0-5.4-1.1-6.2-3.5c-0.9-2.5,0-4.6,2.7-6.7c4.7-3.5,9.4-7.1,14-10.6c0.4-0.3,0.8-0.6,1.5-1.3h-2.1c-7.4,0-14.7,0-22.1,0
			c-12.2,0-22.3-9.1-23.7-21.2c-0.2-1.8-0.3-3.7-0.3-5.6c0-10,0-20,0-29.9c0-4.5,2.2-6.8,6.7-6.8c1.3,0,2.7,0,4,0
			c3.7,0,5.7,1.8,6.5,5.3c1.2,5.4,2.3,10.8,3.5,16.3c0.1,0.3,0.1,0.6,0.2,0.9c0.3,0,0.5,0.1,0.7,0.1c9,0,17.9,0,27.3,0
			c-0.7-0.6-1.1-0.9-1.6-1.3c-5.1-3.8-10.1-7.6-15.2-11.5c-3.1-2.4-3.5-6-1-8.4c0.6-0.6,1.4-1.2,2.2-1.2c4.3,0,8.7,0,13,0.3
			c1.8,0.1,2.7,1.5,2.3,3c-0.4,1.5-1.6,1.9-3.4,1.7c-3.6-0.3-7.2-0.4-10.8-0.6c-0.2,0.3-0.4,0.7-0.6,1c0.5,0.2,1,0.2,1.3,0.5
			c7,5.3,14,10.6,20.9,15.8c0.4,0.3,1,0.6,1.6,0.6c6.2,0,12.4,0,18.7-0.2c-0.5-0.3-0.9-0.6-1.4-0.8c-6.7-3.7-13.3-7.4-20-11.1
			c-0.5-0.3-0.9-0.5-1.4-0.8c-1.1-0.8-1.5-2.1-0.9-3.2c0.6-1.1,1.9-1.5,3.2-0.9c0.4,0.2,0.8,0.4,1.3,0.7
			c9.4,5.2,18.8,10.4,28.3,15.6c0.9,0.5,2.1,0.8,3.1,0.8c14.1,0.1,28.3,0,42.4,0c9.3,0,15.6,4.3,19.2,12.9c0.2,0.5,0.4,1,0.7,1.5
			c1,0.1,1.9,0.2,2.8,0.4c4.9,1.2,8,4.3,9.4,9.1l0.6,2V109.3z M23.1,62.2c-0.1,0.6-0.3,1.1-0.3,1.5c0,11-0.2,22,0.1,33
			c0.2,9.9,7.8,19.4,20,19.3c41.6-0.2,83.2-0.1,124.8-0.1c0.5,0,1.1,0,1.6,0c3.3-0.2,5.6-1.8,7-4.8c2.6-5.9-1.8-12.2-7.6-11.9
			c-8,0.5-16,0.1-24,0.1c-3.8,0-6.6-2.6-6.6-6.2c0-3.5,2.8-6.2,6.5-6.3c2.3-0.1,4.6,0,6.9,0c2,0,4,0,6,0c-2.4-1.9-5-2.3-7.8-2.3
			c-37.2,0-74.4,0-111.5,0c-2.7,0-3.3-0.5-3.8-3.1c-0.9-4.2-1.8-8.4-2.7-12.7c-0.5-2.2-1-4.4-1.5-6.7H23.1z M162.7,91.7
			c-5.7,0-11.1,0-16.6,0c-0.4,0-0.7,0-1.1,0c-1,0-1.9,0.2-1.9,1.4c0,1.2,0.9,1.4,1.9,1.4c1.8,0,3.5,0,5.3,0H164
			C163.6,93.5,163.2,92.7,162.7,91.7"/>
		<path class="st0" d="M124.1,109.7c-5.4-0.3-9.4-4.6-9.1-9.9c0.3-5.3,4.8-9.4,9.9-9c5.3,0.3,9.4,4.8,9.1,10
			C133.6,106,129.1,110,124.1,109.7 M124.4,104.9c2.6,0,4.7-2.1,4.7-4.7c0-2.5-2.2-4.6-4.6-4.6c-2.6,0-4.7,2.1-4.7,4.8
			C119.8,102.9,121.9,104.9,124.4,104.9"/>
		<path class="st0" d="M91.3,100.3c0-5.2,4.1-9.5,9.4-9.6c5.2-0.1,9.6,4.3,9.6,9.5c0,5.2-4.3,9.5-9.5,9.5
			C95.6,109.8,91.3,105.6,91.3,100.3 M96.1,100.3c0,2.6,2.1,4.6,4.7,4.6c2.5,0,4.6-2.1,4.6-4.6c0-2.5-2.2-4.7-4.7-4.7
			C98.2,95.6,96.1,97.7,96.1,100.3"/>
		<path class="st0" d="M86.6,100.2c0,5.2-4.1,9.4-9.4,9.6c-5.2,0.1-9.5-4.1-9.6-9.3c-0.1-5.3,4.2-9.6,9.4-9.7
			C82.2,90.7,86.6,95,86.6,100.2 M77.2,104.9c2.6,0,4.6-2.1,4.6-4.7c0-2.5-2.1-4.6-4.6-4.6c-2.5,0-4.7,2.1-4.7,4.7
			C72.5,102.9,74.6,104.9,77.2,104.9"/>
		<path class="st0" d="M62.9,100.3c0,4.1-2.4,7.5-6.3,8.9c-3.9,1.4-8.1,0.2-10.5-3c-1.2-1.5-1.2-2.9,0-3.8c1.1-0.9,2.5-0.8,3.6,0.6
			c1.9,2.6,6.4,2.5,8-0.8c0.9-1.8,0.4-4.1-1.1-5.4c-1.6-1.4-3.8-1.6-5.6-0.4c-0.4,0.3-0.8,0.6-1.2,0.8c-1.2,0.8-2.5,0.6-3.3-0.4
			c-0.9-1.2-0.7-2.3,0.3-3.3c2.4-2.7,6.8-3.5,10.3-2C60.7,93,62.9,96.4,62.9,100.3"/>
	</g>
</g>
</svg>
