<?xml version="1.0" encoding="utf-8"?>
<!-- Generator: Adobe Illustrator 23.0.1, SVG Export Plug-In . SVG Version: 6.00 Build 0)  -->
<svg version="1.1" id="Layer_1" xmlns="http://www.w3.org/2000/svg" xmlns:xlink="http://www.w3.org/1999/xlink" x="0px" y="0px"
	 viewBox="0 0 200 200" style="enable-background:new 0 0 200 200;" xml:space="preserve">
<style type="text/css">
	.st0{fill:#F3E820;}
</style>
<g>
	<g>
		<path class="st0" d="M33,106.6c0.6-2.4,1-5,1.8-7.3C39.1,87.5,50.4,80,63,80.7c3.8,0.2,7.3,1.1,10.7,2.7c0.4,0.2,0.9,0.4,1.4,0.6
			c1.8-2.7,3.5-5.4,5.2-8.1c-1.5-2.9-3-5.8-4.5-8.8c-1.4,0-2.8,0-4.2,0c-1.6,0-2.7-0.9-2.7-2.3c0-1.3,1-2.3,2.6-2.4
			c4.8,0,9.7,0,14.5,0c1.6,0,2.6,1,2.5,2.4c-0.1,1.3-1,2.2-2.6,2.2c-1.6,0-3.1,0-4.9,0c1.2,2.3,2.2,4.4,3.3,6.5h33.1
			c-0.2-0.5-0.4-0.9-0.6-1.2c-1.1-2.1-2.2-4.2-3.2-6.3c-0.9-1.9,0-3.6,2-3.6c5-0.1,10-0.1,15,0c3.7,0.1,6.4,2.7,6.7,6
			c0.3,3.5-1.6,6.5-5,7.3c-1.4,0.3-2.9,0.3-4.4,0.2c-1.2,0-2.1-1.1-2.1-2.3c0-1.2,0.9-2.1,2.2-2.2c0.7-0.1,1.5,0,2.2,0
			c1.5-0.1,2.5-1,2.5-2.3c0-1.3-1-2.1-2.5-2.1c-3.6,0-7.2,0-11,0c2.7,5.3,5.4,10.5,8.1,15.7c8.5-3.2,16.8-2.9,24.8,1.4
			c6.5,3.6,10.9,9.1,13.4,16.1c4.5,13-1.9,28.3-14.3,34.3c-13.2,6.4-28.8,2.2-36.6-9.7c-7.7-11.7-6.4-30.1,8.7-40.1
			c-0.7-1.4-1.4-2.7-2.2-4.2c-0.3,0.5-0.6,0.8-0.8,1.2c-5.9,9.1-11.8,18.2-17.7,27.3c-0.4,0.6-0.8,1.4-1,2.1
			c-0.9,2.9-1.8,5.7-2.7,8.7c0.7,0,1.3,0,1.9,0c1.4,0.1,2.3,1,2.3,2.2c0,1.2-0.7,2.2-2.1,2.3c-2.9,0.1-5.8,0.1-8.6,0
			c-1.3,0-2.1-1.1-2.1-2.2c0-1.2,0.9-2.2,2.3-2.3c0.5,0,1,0,1.5,0c0.9-2.8,1.7-5.6,2.6-8.5h-6.6c-0.3,1.4-0.5,2.8-0.8,4.1
			c-2.7,12.1-13.4,21.2-25.7,21.9c-14.4,0.9-26.8-8.4-30-22.5c-0.2-1.1-0.4-2.1-0.6-3.2V106.6z M125.5,89.1
			c-11,6.9-14.2,21.6-7.3,32.9c6.9,11.1,21.6,14.4,33,7.4c11.1-6.9,14.5-21.7,7.3-33.1c-7.1-11.2-20.8-13.2-28.9-9.2
			c2.3,4.4,4.6,8.9,6.9,13.3c1.3,2.5,2.6,5,3.9,7.6c0.7,1.3,0.2,2.7-1,3.2c-1.1,0.5-2.4,0.1-3.1-1.2c-0.5-0.8-0.8-1.6-1.3-2.4
			C131.9,101.4,128.7,95.3,125.5,89.1 M72.5,87.9c-9-5-21-3-28.1,4.6c-7.7,8.1-8.9,19.8-3.1,29.4c5.4,8.9,16.9,13.2,27,10.2
			c10.7-3.2,16.6-12.8,17-20.7h-1.4c-7,0-14,0-21.1,0c-0.4,0-0.9,0-1.3,0c-1.8-0.2-2.7-1.8-1.9-3.4c0.2-0.4,0.4-0.7,0.7-1.1
			C64.3,100.6,68.4,94.3,72.5,87.9 M86.7,78.3c4.5,8.8,8.9,17.4,13.4,26.2c5.7-8.8,11.3-17.4,17-26.2H86.7z M65.8,106.8h19.6
			c-0.8-6.7-3.8-12.1-9-16.4C72.8,95.9,69.4,101.2,65.8,106.8 M78.9,86.5c6.6,5.3,10.3,12,11.1,20.3h6.1
			c-4.5-8.8-8.9-17.4-13.4-26.2C81.4,82.6,80.2,84.5,78.9,86.5"/>
	</g>
</g>
</svg>
