<?xml version="1.0" encoding="utf-8"?>
<!-- Generator: Adobe Illustrator 23.0.1, SVG Export Plug-In . SVG Version: 6.00 Build 0)  -->
<svg version="1.1" id="Layer_1" xmlns="http://www.w3.org/2000/svg" xmlns:xlink="http://www.w3.org/1999/xlink" x="0px" y="0px"
	 viewBox="0 0 200 200" style="enable-background:new 0 0 200 200;" xml:space="preserve">
<style type="text/css">
	.st0{fill:#F3E820;}
</style>
<g>
	<g>
		<path class="st0" d="M162.5,126.1c-0.7,1.5-1.3,3.1-2,4.6c-2.8,6-6.7,11-11.7,15.3c-1.6,1.4-3.6,1-4.2-0.8
			c-0.4-1.2,0.3-2.1,1.1-2.9c1.9-2,4-3.8,5.7-6c1.8-2.3,3.1-4.9,4.6-7.4c0.2-0.3,0.2-0.6,0.4-1h-1.6c-26.2,0-52.5,0-78.7,0
			c-0.6,0-1.1,0-1.7-0.1c-1.2-0.3-1.9-1.2-1.8-2.4c0-1.1,0.8-2,1.9-2.2c0.5-0.1,1-0.1,1.5-0.1c6.7,0,13.4,0,20.1,0h1.5v-1.6
			c0-25.1,0-50.2,0-75.3c0-0.6,0-1.1,0.1-1.7c0.3-1.2,1.3-1.9,2.4-1.9c1.2,0,2.1,0.9,2.3,2.1c0.1,0.5,0.1,1,0.1,1.5
			c0,25.2,0,50.3,0,75.5v1.5h1.6c18.4,0,36.8,0,55.2,0c1.5,0,2.6,0.4,3.3,1.7V126.1z"/>
		<path class="st0" d="M162.5,153.7c-2.3,3.1-5.5,3.9-9.1,3.8c-2.7-0.1-5-1.2-7.2-2.8c-1.9-1.4-4.1-1.7-6.4-1
			c-0.9,0.3-1.8,0.9-2.7,1.5c-4.8,3.1-9.5,3.2-14.2,0c-3.7-2.5-6-2.5-9.8,0c-4.8,3.2-9.5,3.2-14.3,0c-3.7-2.4-6-2.5-9.7,0
			c-4.9,3.2-9.6,3.2-14.4,0c-3.6-2.4-6-2.4-9.5,0c-4.9,3.3-9.6,3.3-14.5,0c-3.1-2.1-6-2.3-9.2-0.2c-1.4,1-2.9,0.7-3.6-0.5
			c-0.8-1.2-0.4-2.6,1-3.5c4.3-3,9.5-3.1,13.9-0.1c2.6,1.8,5.2,2.7,8.2,1.3c0.7-0.3,1.3-0.8,2-1.2c4.6-3.1,9.4-3.1,14,0
			c2.1,1.4,4.3,2.4,6.8,1.6c1.2-0.4,2.3-1.1,3.3-1.8c3.2-2.1,6.7-2.7,10.3-1.6c1.2,0.4,2.3,1,3.4,1.6c4.1,2.7,6.3,2.7,10.3,0
			c3.9-2.6,8-2.9,12.3-0.9c0.9,0.4,1.7,1,2.5,1.5c2.7,1.8,5.6,1.9,8.3,0c2.7-1.9,5.6-3.2,9-2.7c1.7,0.3,3.4,1,5,1.6
			c0.7,0.3,1.3,0.8,1.9,1.2c2.6,1.6,5.1,1.6,7.7,0c2.2-1.4,3-1.3,4.6,0.7V153.7z"/>
		<path class="st0" d="M112.2,112.2h32.2c-0.3-10.8-2.7-21.1-7.1-30.9c-5.7-12.5-13.9-23-25-31.6v1.5c0,5.3,0,10.5,0,15.8
			c0,1.9-1.2,3-2.9,2.8c-1.3-0.2-2-1.2-2-2.8c0-3.5,0-7,0-10.5c0-3.7,0-7.4,0-11.1c0-1.1,0.3-2.1,1.4-2.7c1.1-0.6,2-0.2,2.9,0.5
			c11.9,8.4,21.5,19,28.2,32c4.4,8.5,7.3,17.5,8.6,26.9c0.5,3.9,0.7,7.9,1,11.8c0.1,2.3-0.8,3.2-3.1,3.2c-11.9,0-23.8,0-35.7,0
			c-2.3,0-3.2-0.9-3.2-3.2c0-8.9,0-17.8,0-26.7c0-0.4,0-0.9,0.1-1.3c0.3-1.2,1.3-1.9,2.4-1.8c1.1,0.1,2,0.8,2.2,1.9
			c0.1,0.5,0.1,1,0.1,1.5c0,7.8,0,15.5,0,23.3V112.2z"/>
		<path class="st0" d="M92.7,85.8c0,9.3,0,18.6,0,27.8c0,2.6-0.8,3.4-3.4,3.4c-9.6,0-19.3,0-28.9,0c-1.2,0-2.2-0.3-2.8-1.4
			c-0.5-1-0.1-2,0.4-2.9c4.3-8,8.5-16,12.8-24C76.3,78.2,81.9,67.6,87.5,57c0.2-0.5,0.5-0.9,0.8-1.4c0.6-0.8,1.5-1.1,2.5-0.8
			c1,0.2,1.6,0.9,1.8,2c0.1,0.4,0.1,0.9,0.1,1.3C92.7,67.4,92.7,76.6,92.7,85.8 M87.7,67.5c-0.1,0-0.1,0-0.2-0.1
			c-7.9,14.9-15.8,29.7-23.7,44.7h23.9V67.5z"/>
		<path class="st0" d="M43.6,127.8c2,4.5,4.7,8.4,8,11.8c0.9,0.9,1.9,1.8,2.8,2.7c1.3,1.2,1.5,2.6,0.5,3.8c-0.9,1.1-2.4,1.1-3.8-0.1
			c-6.2-5.3-10.6-11.8-13.4-19.4c-0.7-1.9,0.4-3.5,2.4-3.5c4.4,0,8.9,0,13.3,0c1.1,0,2,0.4,2.5,1.4c0.4,0.9,0.4,2-0.4,2.6
			c-0.6,0.5-1.5,0.8-2.3,0.8C50,127.9,46.9,127.8,43.6,127.8"/>
		<path class="st0" d="M109.7,80.2c-1.3,0-2.4-1.1-2.4-2.4c0-1.3,1.2-2.4,2.5-2.4c1.3,0,2.4,1.2,2.4,2.4
			C112.2,79.2,111.1,80.3,109.7,80.2"/>
		<path class="st0" d="M62.6,125.3c0-1.3,1.1-2.4,2.4-2.4c1.3,0,2.4,1.1,2.3,2.5c0,1.3-1.1,2.4-2.4,2.4
			C63.6,127.8,62.6,126.7,62.6,125.3"/>
	</g>
</g>
</svg>
