<?xml version="1.0" encoding="utf-8"?>
<!-- Generator: Adobe Illustrator 23.0.1, SVG Export Plug-In . SVG Version: 6.00 Build 0)  -->
<svg version="1.1" id="Layer_1" xmlns="http://www.w3.org/2000/svg" xmlns:xlink="http://www.w3.org/1999/xlink" x="0px" y="0px"
	 viewBox="0 0 200 200" style="enable-background:new 0 0 200 200;" xml:space="preserve">
<style type="text/css">
	.st0{fill:#F3E820;}
</style>
<g>
	<g>
		<path class="st0" d="M27.8,91.3c1.3-3.7,4-5.3,7.9-5.4c0.6,0,1.1-0.2,1.7-0.2c6.3-0.5,12.3-2,17.9-5.1c2.5-1.4,5-2.5,7.5-3.8
			c4.4-2.2,9-3.6,13.9-3.6c7.7-0.1,15.3-0.1,23,0c5.8,0.1,11.1,2,16,5.2c5.1,3.3,10.3,6.6,15.5,9.8c0.8,0.5,1.7,0.8,2.6,0.8
			c9.1,0.4,18.1,1.3,26.8,4.1c1.7,0.5,3.5,1.2,5.1,2c4.2,2,6.4,5.4,6.6,10c0.1,2.7,0.1,5.5,0,8.2c-0.1,3.8-2.5,6.6-5.9,7
			c-1.5,0.2-2.6-0.5-2.8-1.7c-0.2-1.2,0.5-2.2,2.1-2.5c1.5-0.2,2.1-1.1,2.3-2.5c0.1-0.4,0.1-0.8,0.1-1.3c0-2.6,0-5.2,0-7.9
			c-1.5,0-2.8,0-4.2,0c-1.7,0-2.6-0.8-2.6-2.2c0-1.3,0.9-2,2.6-2.1c0.5,0,1.1,0,1.6,0c0-0.1,0.1-0.2,0.1-0.4
			c-0.7-0.4-1.4-0.9-2.1-1.2c-5.8-2.5-11.9-3.9-18.1-4.5c-6.6-0.6-13.3-0.9-20-1c-13.9-0.1-27.9,0-41.8,0c-0.4,0-0.8,0-1.1,0
			c-1.8,0-2.8-0.8-2.8-2.1c0-1.3,1-2.1,2.7-2.1c1.6,0,3.1,0,4.7,0h1.5V77.4c-0.2-0.1-0.3-0.2-0.4-0.1c-5.1,0.1-10.2,0.2-15.4,0.5
			c-3.2,0.2-3.1,0.5-3.8,3.5c-0.6,2.4-1.1,4.8-1.7,7.5c0.7,0.1,1.3,0.1,1.9,0.1c1.3,0,2.5,0,3.8,0.1c1.1,0.1,1.8,0.8,1.8,2
			c0,1.1-0.5,2-1.7,2.1c-5.4,0.4-10.6,0.2-14.6-4.2c-1.1-1.2-2.1-2.9-3.5-3.2c-1.3-0.3-2.9,0.9-4.4,1.5c-4.2,1.7-8.6,2.2-13.1,2.7
			c-1.2,0.1-2.3,0.3-3.5,0.5c-1.6,0.3-2.3,1.1-2.3,2.7c0,0.8,0,1.7,0,2.5c1.8,0.4,4.5-0.6,4.4,2.3c0,2.8-2.6,1.8-4.4,2.1
			c0,2.4-0.2,4.7,0.1,7c0.2,1.9,1.5,3.2,3.4,3.7c2.6,0.8,5.2,1.5,8,2.3c0.5-4.8,2.6-8.6,6.8-11.1c2.8-1.6,5.7-2.1,8.8-1.6
			c3.7,0.6,6.6,2.4,8.8,5.4c2.2,3,2.8,6.4,2.4,10.1H132c0-0.8,0-1.7,0-2.5c0.1-7.4,6.2-13.4,13.6-13.2c7.6,0.2,13.5,6.5,13.2,14
			c-0.3,5.7-4.2,10.7-9.6,12.3c-5.5,1.6-11.4-0.4-14.7-5.1c-0.6-0.8-1.2-1.1-2.2-1.1c-20.7,0-41.4,0-62.1,0c-1,0-1.6,0.3-2.2,1.1
			c-3,4-7,6-12,5.6c-5.3-0.5-9.1-3.3-11.3-8.2c-0.4-0.9-0.9-1.3-1.8-1.5c-2.3-0.6-4.5-1.4-6.8-1.9c-4.4-0.9-7.3-3.3-8.4-7.7V91.3z
			 M123.8,88.7c0-0.1,0.1-0.2,0.1-0.3c-3.5-2.2-6.9-4.4-10.4-6.6c-3.4-2.2-7-3.8-11.1-4.3c-3-0.3-6.1-0.4-9.3-0.5v11.7H123.8z
			 M66.2,113.6c0-5.1-4-9.1-9.1-9.2c-5.1-0.1-9.3,4.1-9.3,9.2c0,5.1,4.2,9.3,9.3,9.2C62.2,122.8,66.2,118.7,66.2,113.6 M145.3,104.4
			c-5.1,0-9.1,4.2-9.1,9.3c0.1,5,4.3,9.1,9.2,9.1c5.1-0.1,9.2-4.3,9.1-9.4C154.5,108.4,150.3,104.4,145.3,104.4 M65,80.3
			c-2.1,1-3.9,1.9-5.1,2.5c1.1,1.3,2.3,2.7,3.6,4.2C64,84.9,64.5,82.7,65,80.3"/>
		<path class="st0" d="M101.3,111.2c-7.6,0-15.1,0-22.7,0c-0.5,0-1,0-1.5-0.1c-1.1-0.2-1.7-1-1.7-2.1c0-1,0.6-1.8,1.7-1.9
			c0.5-0.1,0.9-0.1,1.4-0.1c15.1,0,30.3,0,45.4,0c0.4,0,0.8,0,1.3,0.1c1.2,0.2,1.9,0.9,1.9,2.1c0,1.1-0.7,1.8-1.8,2
			c-0.5,0.1-0.9,0.1-1.4,0.1C116.3,111.2,108.8,111.2,101.3,111.2"/>
		<path class="st0" d="M60.8,111.5c0.1,1.8-4.1,6-5.4,5.7c-0.6-0.1-1.5-0.6-1.7-1.2c-0.3-0.6-0.2-1.6,0.2-2.1
			c1.1-1.3,2.3-2.5,3.6-3.6c0.5-0.4,1.5-0.4,2.2-0.2C60.2,110.4,60.5,111.2,60.8,111.5"/>
		<path class="st0" d="M149,115c0,1.8-1.9,2.9-3.1,1.9c-1.5-1.2-2.8-2.5-4-4c-0.7-0.8-0.5-2,0.4-2.5c0.6-0.4,1.9-0.6,2.4-0.2
			c1.5,1.1,2.7,2.6,4,3.9C149,114.4,149,114.9,149,115"/>
	</g>
</g>
</svg>
