<?xml version="1.0" encoding="utf-8"?>
<!-- Generator: Adobe Illustrator 23.0.1, SVG Export Plug-In . SVG Version: 6.00 Build 0)  -->
<svg version="1.1" id="Layer_1" xmlns="http://www.w3.org/2000/svg" xmlns:xlink="http://www.w3.org/1999/xlink" x="0px" y="0px"
	 viewBox="0 0 200 200" style="enable-background:new 0 0 200 200;" xml:space="preserve">
<style type="text/css">
	.st0{fill:#F3E820;}
</style>
<g>
	<g>
		<path class="st0" d="M47.5,136.8v-4.7c-2,0-3.9,0-5.7,0c-1.1,0-2.2,0-3.3,0c-3.9-0.1-6.8-2.8-6.9-6.8c-0.1-5.4-0.1-10.8,0-16.2
			c0.1-3.9,2.8-6.6,6.7-6.8c0.7-0.1,1.5,0,2.4,0v-1.9c0-6,0-12,0-18c0-4.2,2-6.3,6-7.6c3.3-1,6.4-2.5,9.5-3.9
			c29-12.2,58-24.5,86.9-36.7c0.8-0.3,1.5-0.8,2.2-1.3c2.9-2,6.1-2.3,9.2-0.8c3.2,1.5,5,4.2,5.2,7.8c0,0.7,0,1.3,0,2
			c0,21.7,0,43.4,0,65.2v1.7c0.2,0.1,0.3,0.2,0.4,0.2c2.9-0.4,4.2,1.2,5,3.7c0.9,2.9,2.3,5.6,3.3,8.5c0.3,0.9,0.3,2.1,0.1,3
			c-0.5,2-1.3,4-1.9,6c-0.4,1.2-1.2,1.8-2.5,1.8c-1.4,0-2.8,0-4.4,0v3.3c0,1,0,2,0,3c0,2-0.5,2.6-2.6,2.9c-3.3,0.5-5.1,3.3-4,6.2
			c0.8,2,2.7,3.1,4.9,2.8c2-0.2,3.6-1.8,3.8-3.9c0-0.3,0.1-0.6,0.1-0.9c0.2-1.4,1.1-2.2,2.4-2.1c1.3,0.1,2.1,1,2.1,2.4
			c0.1,4.2-3.3,8.2-7.5,8.9c-4.5,0.7-8.9-1.8-10.3-6.1c-1.5-4.5,0.6-9.3,4.9-11.3c0.4-0.2,0.9-0.4,1.4-0.6v-4.9c-1.4,0-2.7,0-4,0
			c-1.5,0.1-2.4-0.6-2.8-2.1c0,0,0-0.1,0-0.1c-2.4-4.7-2.3-9.2,0.3-13.8c0.8-1.4,1.2-3,1.8-4.5c0.9-2.2,1.2-2.4,3.5-2.4
			c0.3,0,0.6,0,0.9,0c0.1,0,0.2-0.1,0.3-0.1V48.6c-0.9,0.3-1.8,0.6-2.8,0.9c-5.8,16-11.7,32-17.5,48.2c1.3,3.2,2.6,6.4,3.8,9.7
			c0.3,0.8,0.5,1.7,0.5,2.6c0.1,4.9,0,9.8,0,14.8c0,4.6-2.7,7.3-7.4,7.4c-2.8,0-5.6,0-8.5,0v4.7c0.9,0.2,1.8,0.4,2.6,0.7
			c7.3,2.4,11.9,9.7,10.9,17.5c-1,7.5-7.4,13.3-15,13.7c-0.7,0-1.3,0.1-2,0.1c-23,0-45.9,0-68.9,0c-5.7,0-10.4-1.9-13.8-6.4
			c-7-9.2-2.1-22.7,9.2-25.2C46.7,137,47,136.9,47.5,136.8 M60.7,102.2h24c0.1-0.4,0.2-0.7,0.3-1c1.3-5.3,2.6-10.5,4-15.8
			c1.2-4.4,3.4-6,7.9-6c3.8,0,7.6,0,11.4,0c0.3-0.4,0.6-0.7,0.9-1c8.6-9.7,17.1-19.4,25.7-29.1c0.4-0.5,0.8-1,1.3-1.4
			c1-0.9,2.2-1,3.1-0.2c0.9,0.8,1.1,2,0.4,3.1c-0.2,0.3-0.4,0.6-0.7,1h7.5c0.3-0.9,0.6-1.8,1-2.7c-4-1.8-5.9-4.8-6.1-9.2
			c-29.6,12.5-59,24.9-88.6,37.4c1.8,2.7,2.1,5.4,0.4,8.1c-1.9,2.9-4.6,3.6-7.9,2.8v14h10.5c-0.2-0.6-0.3-1.2-0.4-1.7
			c-0.7-2.3-1.4-4.6-2.1-7c-0.3-1-0.3-2.1,0.8-2.7c0.7-0.4,1.7-0.5,2.4-0.2c0.6,0.3,1.1,1.2,1.3,1.9C58.8,95.7,59.8,98.9,60.7,102.2
			 M85.4,127.5c15.4,0,30.8,0,46.2,0c2.4,0,3-0.6,3.1-3c0-3.9-0.1-7.7,0-11.6c0.1-2.2-0.4-4.3-1.2-6.4c-2.8-6.7-5.4-13.4-8.1-20.2
			c-0.7-1.7-1.6-2.5-3.6-2.4c-8.2,0.1-16.3,0.1-24.5,0.1c-2.8,0-3.2,0.3-3.9,3.1c-1.4,5.6-2.8,11.3-4.2,16.9c-0.7,2.7-1,2.9-3.7,2.9
			c-15.4,0-30.7,0-46.1,0c-2.5,0-3.2,0.7-3.2,3.2c0,4.7,0,9.4,0,14c0,2.9,0.6,3.4,3.4,3.4C54.8,127.5,70.1,127.5,85.4,127.5
			 M52.2,136.6h1.9c15.8,0,31.6,0,47.4,0c2.4,0,3.4,0.7,3.4,2.3c0,1.6-1,2.3-3.4,2.3c-16.8,0-33.5,0-50.3,0c-0.9,0-1.7,0-2.6,0.1
			c-4.7,0.6-8,3.1-9.5,7.5c-1.6,4.5-0.6,8.6,2.7,12c2.5,2.6,5.7,3.3,9.1,3.3c22.9,0,45.8,0,68.7,0c0.7,0,1.3,0,2-0.1
			c7.1-0.5,12-7.2,10.3-14.1c-1.3-5.4-5.7-8.7-11.6-8.8c-2.9,0-5.7,0-8.6,0c-1.7,0-2.6-1.2-2.3-2.7c0.3-1.5,1.4-1.8,2.7-1.8
			c2.1,0,4.2,0,6.2,0v-4.5H52.2V136.6z M162.9,127.4c0.5-1.5,1.6-3.2,1.2-4.6c-0.8-3.1-2.3-6.1-3.5-9h-6.1c-1.3,3.1-2.5,6.2-3.7,9.2
			c0.5,1.6,1,3,1.5,4.4H162.9z M122.4,70.5c-2.6,2.9-5.1,5.8-7.8,8.9c3,0,5.5,0,8.1,0c2.7,0,4.7,1.1,6,3.5c0.6,1,1,2.1,1.5,3.1
			c0.7,1.6,1.3,3.3,2.2,5.3c0.9-2.4,1.6-4.5,2.4-6.5C130.5,80,126.5,75.3,122.4,70.5 M155.3,40.5c0-2.6-1.9-4.6-4.5-4.6
			c-2.6-0.1-4.7,2-4.7,4.6c0,2.5,2,4.5,4.6,4.5C153.3,45,155.2,43,155.3,40.5 M136.5,79.8c1.2-3.3,2.3-6.4,3.4-9.5h-11.6
			C131.1,73.6,133.7,76.6,136.5,79.8 M139.5,65.5c-1.9-2.9-3.7-5.5-5.5-8.2c-2.5,2.8-4.8,5.4-7.2,8.2H139.5z M142.8,62.3
			c0.7-2,1.4-3.8,2.1-5.7H139C140.3,58.5,141.5,60.2,142.8,62.3 M47.6,79.4c-1.3,0-2.3,1-2.3,2.3c0,1.3,1,2.2,2.3,2.2
			c1.3,0,2.2-1,2.2-2.3C49.8,80.3,48.9,79.4,47.6,79.4"/>
		<path class="st0" d="M107.2,106.8c-3.3,0-6.4,0-9.5,0c-3,0-3.7-1-3-3.9c1.1-4,2.1-8,3.2-12c0.5-1.9,1.1-2.4,3.2-2.4
			c5.8,0,11.5,0,17.3,0c1.6,0,2.5,0.6,3.2,2.1c2.7,6.4,5.4,12.8,8.1,19.2c0.3,0.6,0.4,1.3,0.4,1.9c0,2.8,0,5.6,0,8.4
			c0,1.8-0.8,2.6-2.6,2.7c-4.3,0-8.7,0-13,0c-1.2,0-2-0.5-2.6-1.4c-1.2-1.9-2.6-3.8-3.8-5.7c-0.5-0.9-0.8-1.9-0.9-2.9
			C107.1,110.9,107.2,109,107.2,106.8 M125.5,118.3c-0.1-3.2,0.5-6.3-1.1-9.2c-0.9-1.7-1.6-3.6-2.3-5.4c-1.5-3.5-2.9-7-4.4-10.5
			h-5.7c-0.1,0.3-0.1,0.4-0.1,0.5c0,6.2,0,12.4,0,18.6c0,0.4,0.1,0.8,0.3,1.1c1.1,1.6,2.1,3.2,3.2,4.8H125.5z M102,93.2
			c-0.8,3-1.6,6-2.4,9h7.4v-9H102z"/>
		<path class="st0" d="M45.3,117.3c0,1.1,0,2.3,0,3.4c-0.1,1.4-0.9,2.3-2.2,2.3c-1.3,0-2.3-0.8-2.3-2.2c-0.1-2.4-0.1-4.8,0-7.1
			c0.1-1.3,1.1-2.2,2.4-2.2c1.2,0.1,2,0.9,2.1,2.3c0,0.1,0,0.2,0,0.3C45.3,115.1,45.3,116.2,45.3,117.3L45.3,117.3z"/>
		<path class="st0" d="M63.6,117.4c0,1.1,0,2.3,0,3.4c-0.1,1.3-0.8,2-2.1,2.1c-1.3,0.1-2.3-0.6-2.4-1.9c-0.1-2.5-0.1-5,0-7.4
			c0-1.3,1.1-2.1,2.3-2.1c1.2,0,2.1,0.9,2.2,2.2C63.7,114.9,63.6,116.1,63.6,117.4C63.6,117.4,63.6,117.4,63.6,117.4"/>
		<path class="st0" d="M54.4,117.2c0,1.2,0,2.4,0,3.6c-0.1,1.3-0.8,2-2.1,2.1c-1.3,0.1-2.3-0.6-2.4-2c-0.1-2.5-0.1-5,0-7.4
			c0.1-1.3,1-1.9,2.2-2c1.2-0.1,2.1,0.9,2.2,2.2c0,0.1,0,0.2,0,0.3C54.4,115,54.4,116.1,54.4,117.2L54.4,117.2z"/>
		<path class="st0" d="M75.1,159.6c-3.8,0-6.9-3.1-6.9-6.9c0-3.7,3.1-6.8,6.8-6.8c3.7,0,6.8,3,6.9,6.8
			C82,156.4,78.9,159.5,75.1,159.6 M75.1,150.4c-1.3,0-2.3,1-2.3,2.2c0,1.3,1,2.3,2.3,2.3c1.3,0,2.3-0.9,2.3-2.2
			C77.4,151.4,76.4,150.4,75.1,150.4"/>
		<path class="st0" d="M102.6,152.6c0,3.8-3,6.9-6.9,6.9c-3.7,0-6.8-3-6.9-6.8c-0.1-3.8,3.1-6.9,6.9-6.9
			C99.5,145.8,102.5,148.9,102.6,152.6 M98,152.7c0-1.3-1-2.3-2.3-2.2c-1.3,0-2.3,1-2.3,2.3c0,1.3,1,2.2,2.3,2.2
			C97,155,98,154,98,152.7"/>
		<path class="st0" d="M123.2,152.6c0,3.8-3,6.9-6.8,6.9c-3.7,0-6.8-3-6.9-6.8c-0.1-3.8,3.1-6.9,6.9-6.9
			C120.1,145.8,123.1,148.9,123.2,152.6 M118.6,152.7c0-1.3-0.9-2.3-2.2-2.3c-1.3,0-2.3,1-2.3,2.2c0,1.3,1,2.3,2.3,2.3
			C117.6,155,118.6,154,118.6,152.7"/>
		<path class="st0" d="M61.3,152.6c0,3.8-3,6.9-6.7,6.9c-3.8,0-7-3-7-6.9c0-3.7,3.1-6.8,6.8-6.9C58.2,145.8,61.3,148.9,61.3,152.6
			 M56.7,152.7c0-1.3-1-2.3-2.3-2.2c-1.3,0-2.3,1-2.3,2.3c0,1.3,1,2.2,2.3,2.2C55.8,155,56.7,154,56.7,152.7"/>
	</g>
</g>
</svg>
