<?xml version="1.0" encoding="utf-8"?>
<!-- Generator: Adobe Illustrator 23.0.1, SVG Export Plug-In . SVG Version: 6.00 Build 0)  -->
<svg version="1.1" id="Layer_1" xmlns="http://www.w3.org/2000/svg" xmlns:xlink="http://www.w3.org/1999/xlink" x="0px" y="0px"
	 viewBox="0 0 200 200" style="enable-background:new 0 0 200 200;" xml:space="preserve">
<style type="text/css">
	.st0{fill:#F3E820;}
</style>
<g>
	<g>
		<path class="st0" d="M35.2,104.8c2.2-3.9,5.2-7,8.7-9.7c1.2-0.9,2.3-0.8,3,0.2c0.7,0.9,0.4,2-0.7,2.8c-2.7,2.1-5,4.5-7,7.3
			c-0.1,0.1-0.2,0.3-0.3,0.6c0.7,0.4,1.4,0.8,2.1,1c0.3,0.1,0.6-0.2,1-0.3c0.8-0.4,1.7-0.8,2.5-1.2c0.4-0.2,0.9-0.4,1.3-0.7
			c13.9-14.1,36.9-9.2,43.8,9.3c0.3,0.8,0.7,1.2,1.5,1.1c0.9-1.3,0.6-2.3-0.4-3.4c-4.3-5-8.5-10.2-12.7-15.3c-0.6-0.7-1.1-1-2-1
			c-2.7,0.1-5.5,0-8.2,0c-2.7,0-4.9-0.8-6.8-2.8c-0.3-0.3-0.8-0.4-1.2-0.4c-1.8,0.4-3.7,0.9-5.5,1.4c-1.4,0.4-2.4,0-2.8-1.1
			c-0.3-1,0.3-2,1.6-2.5c1.9-0.6,3.9-1.1,5.8-1.7c0.1-1.1,0.1-2.3,0.3-3.3c1.4-5.7,8.4-8.4,13.5-4.9c3.1,2.1,6.2,2.6,9.6,2.7
			c2.9,0.1,5.8,0.3,8.7,0.4c0.5,0,1.1-0.2,1.6-0.5c4.5-2.9,8.9-5.9,13.4-8.9c4-2.7,8.4-3.5,13.1-2.5c2.7,0.6,5.5,1.1,8.5,1.7
			c-0.6-1.7-1.1-3.2-1.6-4.7c-0.5-1.4-1-2.8-1.4-4.2c-0.4-1.2-1.1-1.6-2.3-1.4c-3.8,0.6-7.6,1.3-11.3,1.9c-0.9,0.2-1.8,0.2-2.4-0.6
			c-0.9-1.2-0.2-2.8,1.5-3.1c3.7-0.6,7.3-1.2,11-1.8c1-0.1,1.9-0.3,2.9-0.2c2.1,0.3,3.4,1.5,4.1,3.5c0.6,1.7,1.2,3.4,1.7,4.9
			c2.2-0.8,4.2-1.8,6.3-2.3c2.3-0.6,4.7-0.3,7,0.4c1.9,0.6,2.9,1.9,2.9,3.8c0,4.1,0.1,8.2,0,12.3c0,2-1,3.3-2.9,3.8
			c-2.1,0.5-4.4,0.7-6.7,1c1.2,3.4,2.5,7.1,3.7,10.8c1.4-0.2,2.7-0.5,3.9-0.7c1.4-0.2,2.4,0.5,2.5,1.6c0.1,1.1-0.6,1.9-2,2.1
			c-1,0.2-2,0.3-3.2,0.5c0.5,1.5,1,2.8,1.5,4.3c4.4-0.8,8.6-0.4,12.6,1.7c0.8-0.9,1.6-1.7,2.3-2.6c0.5-0.6,0.4-1.2-0.3-1.5
			c-1.3-0.6-2.7-1.2-4.1-1.7c-1.4-0.5-2-1.4-1.6-2.5c0.3-1.1,1.4-1.6,2.8-1.1c1.7,0.6,3.3,1.2,4.9,2c2.7,1.4,3.3,4.7,1.4,7.1
			c-0.7,0.8-1.4,1.6-2.1,2.4c3.7,3.3,5.8,7.4,6.2,12.3c0.3,3.7-0.6,7.2-2.5,10.4c-3.9,6.5-11.3,9.9-18.8,8.4
			c-6.6-1.3-13.1-6.6-14.4-15.7c-1.1,0-2.3,0-3.5,0c-3.1-0.1-5.2-2.5-4.7-5.6c1.5-9.3,6.5-16,15-20.1c0.2-0.1,0.4-0.2,0.7-0.3
			c-0.8-2.4-1.7-4.8-2.6-7.5c-2.8,2.2-6.2,3.3-8.3,6.3c-4.4,6.3-9,12.3-13.4,18.5c-0.4,0.6-0.7,1.3-0.7,2.1
			c-0.4,5.7-5.9,10-11.6,9.3c-5.5-0.7-11-1.3-16.6-1.9c-0.2,0-0.4,0-0.7,0c-1,5.4-3.7,9.7-8.4,12.7c-3.4,2.1-7.2,3-11.3,2.5
			c-4.8-0.5-8.8-2.7-11.9-6.4c-3.1-3.7-4.3-8-4.1-12.9c-1.1-0.1-2.2-0.3-3.2-0.4c-3.4-0.3-5.2-2.8-4.4-6.2c0.3-1.3,0.6-2.6,0.9-4
			c-2-1-4.2-1.7-5-4V104.8z M132.7,87.6c-1.1-3.2-2.2-6.2-3.2-9.3c-0.2-0.7-0.6-1-1.3-1.1c-2.8-0.6-5.7-1.1-8.5-1.7
			c-3.8-0.9-7.5-0.9-10.9,1.3c-4.6,3-9.2,6.1-13.8,9.1c-0.3,0.2-0.6,0.4-0.7,0.7c-0.1,1.6,0,3.2,0,4.9c2.8-0.3,5.5-0.4,8.1-0.8
			c5.4-0.8,10.7-0.9,15.8,1.7c2.3,1.2,4.8,0.9,7.1-0.3C127.7,90.8,130.1,89.2,132.7,87.6 M140.5,110.3c-6.9,3.4-9.7,11.8-6.3,18.7
			c3.4,7,11.8,9.9,18.8,6.5c7-3.4,9.9-11.7,6.6-18.7c-3-6.5-10.5-9.3-15.5-7.6c0.3,0.9,0.7,1.8,0.9,2.7c0.3,1.3,0.8,2.4,2.5,2
			c0.3-0.1,0.7,0.1,1.1,0.2c4.6,0.9,7.8,5.6,6.9,10.3c-0.9,4.8-5.7,8-10.6,7.1c-4.6-0.9-7.8-5.6-6.9-10.2c0.5-2.6,1.9-4.6,4.1-6.1
			C141.6,113.6,141.1,112,140.5,110.3 M105.2,122.3c-0.4-0.1-0.6-0.2-0.9-0.3c-14.7-3.2-29.4-6.4-44.1-9.6c-4.7-1-9.4-2-14.1-3.1
			c-1.2-0.3-1.8-0.1-2.1,1.2c-0.3,1.6-0.7,3.2-1.1,4.8c-0.3,1.4-0.2,1.6,1.2,1.8c8.3,0.9,16.7,1.9,25,2.8c10.5,1.2,21,2.5,31.5,3.6
			C102.3,123.9,103.8,123.4,105.2,122.3 M121.2,97.3c-2.7-0.9-5.3-1.7-7.9-2.7c-1.8-0.7-3.6-0.8-5.5-0.6c-8,0.8-15.9,1.8-23.9,1.5
			c-0.5,0-1,0-1.7,0c4.1,5,8,9.7,12,14.5c2.5-2.3,5.4-3.2,8.6-2.8c3.3,0.5,5.7,2.3,7.5,5.1c0.6-0.9,1.2-1.6,1.7-2.4
			c-0.7-0.6-1.3-1-2-1.5c-0.7-0.5-1.3-1-2-1.6c-1.7-1.4-2-3.6-0.7-5.4c0.7-1,1.5-2,2.3-3c1.7-2,3.9-2.3,6-0.7
			c1.1,0.8,2.2,1.7,3.3,2.6C119.8,99.2,120.5,98.2,121.2,97.3 M50.8,121.8c-0.2,4.9,1.4,8.9,5.1,11.9c4.6,3.7,9.8,4.4,15.1,1.9
			c4.4-2.1,6.9-5.7,7.8-10.6c-1.8-0.2-3.5-0.4-5.1-0.5c-1.7,4.9-4.9,7.5-9.1,7.4c-2-0.1-3.9-0.7-5.5-2c-2.3-1.9-3.3-4.4-3.3-7.4
			C54.2,122.1,52.5,122,50.8,121.8 M90.3,87.2c-0.3,0-0.5-0.1-0.8-0.1c-3.6-0.2-7.1-0.4-10.7-0.5c-2.7-0.1-5-0.9-7.1-2.5
			c-0.9-0.7-2.1-1.2-3.3-1.4c-2.6-0.5-5.1,1.2-5.6,3.6c-0.6,2.9,1.5,5.4,4.5,5.5c7.5,0,14.9,0,22.4,0c0.2,0,0.4,0,0.6-0.1V87.2z
			 M85.5,114c-3.9-7.9-9.9-12.5-18.2-13.5c-6.6-0.8-12.4,1.1-17.6,5.7c1.9,0.4,3.5,0.8,5.1,1.1c0.4,0.1,1,0,1.4-0.2
			c8.2-4.2,17.3-2.3,22.9,4.9c0.2,0.3,0.5,0.7,0.8,0.7C81.7,113.2,83.4,113.6,85.5,114 M142.2,75.7c0-1.8,0-3.6,0-5.4
			c0-0.4-0.4-1-0.7-1.1c-3.5-0.9-6.7-0.4-9.4,2.1c-0.5,0.5-0.7,0.9-0.4,1.6c1,2.6,1.8,5.3,2.8,8c0.2,0.5,0.7,1,1.1,1.1
			c1.9,0.7,3.8,0.6,5.7,0.2c0.7-0.2,1-0.5,0.9-1.2C142.2,79.2,142.2,77.5,142.2,75.7 M137.8,102.5c-6.3,2-12.9,10.8-13.2,17.4
			c0,0.4,0.5,1,0.9,1c1.2,0.1,2.3,0,3.5,0c1-6.6,4.4-11.3,10.2-14.3C138.7,105.2,138.3,103.9,137.8,102.5 M107.4,118.8
			c0.9-3.6-1.3-7-4.9-7.8c-3.4-0.8-6.9,1.6-7.5,5.1C99.1,117,103.3,117.9,107.4,118.8 M143.5,119.1c-2,1.9-2.3,4.5-0.9,6.6
			c1.3,2,3.9,2.8,6.1,1.9c2.3-0.9,3.6-3.3,3.1-5.8c-0.4-2.2-2.4-3.8-4.5-3.8c0,0.1-0.1,0.2-0.1,0.2c0.4,1.2,0.8,2.5,1.2,3.7
			c0.4,1.4,0,2.4-1.1,2.8c-1,0.4-2-0.2-2.5-1.5C144.5,121.8,144,120.5,143.5,119.1 M59.8,122.8c-0.1,2.8,2,5,4.8,5.2
			c2.4,0.2,4.8-1.7,5-4C66.4,123.5,63.1,123.2,59.8,122.8 M112.9,100.3c-0.9,1.2-1.7,2.2-2.6,3.3c1.3,1.1,2.6,2.1,3.9,3.1
			c0.9-1.2,1.7-2.3,2.5-3.4C115.5,102.4,114.3,101.4,112.9,100.3 M72.2,111.2c-2.7-2.1-5.8-2.7-9.2-2
			C66,109.8,69.1,110.5,72.2,111.2"/>
		<path class="st0" d="M97,100c-1,0-2,0-3,0c-1.1-0.1-1.7-0.7-1.8-1.7c-0.1-1,0.6-1.9,1.7-2c2.1-0.1,4.3-0.1,6.4,0
			c1,0.1,1.7,0.8,1.6,1.9c0,1.1-0.7,1.7-1.7,1.8C99.1,100,98,100,97,100L97,100z"/>
		<path class="st0" d="M97.1,102.2c1,0,1.9,0,2.9,0c1.1,0,1.7,0.6,1.8,1.7c0.1,1-0.5,1.9-1.6,2c-2.1,0.1-4.3,0.1-6.4,0
			c-1.1,0-1.8-0.9-1.7-2c0.1-1.1,0.8-1.6,1.8-1.7c0.1,0,0.2,0,0.3,0C95.2,102.2,96.1,102.2,97.1,102.2L97.1,102.2z"/>
	</g>
</g>
</svg>
