<?xml version="1.0" encoding="utf-8"?>
<!-- Generator: Adobe Illustrator 23.0.1, SVG Export Plug-In . SVG Version: 6.00 Build 0)  -->
<svg version="1.1" id="Layer_1" xmlns="http://www.w3.org/2000/svg" xmlns:xlink="http://www.w3.org/1999/xlink" x="0px" y="0px"
	 viewBox="0 0 200 200" style="enable-background:new 0 0 200 200;" xml:space="preserve">
<style type="text/css">
	.st0{fill:#F3E820;}
</style>
<g>
	<g>
		<path class="st0" d="M30.3,54.8c0.1-0.3,0.2-0.5,0.3-0.8c1.2-3.8,4.2-6.1,8.1-6.1c7.3,0,14.7,0,22,0c18.4,0,36.8,0,55.1,0
			c5.8,0,9.1,3.3,9.1,9.1c0,5.6,0,11.1,0,16.7v1.6h1.6c6.8,0,13.7,0,20.5,0c3.9,0,6.7,1.6,8.4,5.1c4.5,9.1,9.1,18.2,13.6,27.2
			c0.9,1.7,1.3,3.4,1.3,5.4c-0.1,4.6,0,9.2,0,13.8c0,3.6-1.5,6.2-4.7,7.9c-0.4,0.2-0.7,0.7-0.7,1.1c-0.2,3.9-1.5,7.4-4.1,10.5
			c0.5,0.1,0.8,0.1,1.1,0.1c1.9,0,3.7,0,5.6,0c1.7,0,2.8,1.2,2.8,2.7c0,1.5-1.2,2.6-2.8,2.7c-0.3,0-0.5,0-0.8,0
			c-44.2,0-88.5,0-132.7,0c-1.7,0-2.9-0.5-3.7-1.9v-1.6c0.8-1.5,2-2,3.7-1.9c5.1,0.1,10.1,0,15.2,0h1.7c-2.8-3.3-4.1-6.8-4.2-10.9
			c-2.8,0-5.5,0-8.2,0c-2.9-0.1-5.3-1.3-6.8-3.8c-0.6-0.9-0.9-2-1.3-3V54.8z M119.5,130.1v-1.4c0-23.8,0-47.7,0-71.5
			c0-2.8-0.9-3.7-3.7-3.7c-25.4,0-50.9,0-76.3,0c-2.9,0-3.7,0.9-3.7,3.8c0,16.5,0,32.9,0,49.4v1.6c2.7,0,5.2,0,7.8,0
			c2.1,0,3.2,1,3.2,3.2c0,2.7,0,5.5,0,8.2c0,4.6-0.4,5-5,5h-6c0,0.8,0,1.4,0,2c0,2.5,0.9,3.5,3.5,3.5c2.4,0,4.7,0,7.1,0
			c0.9,0,1.4-0.2,1.8-1.1c3-6.2,8-9.7,14.9-9.8c7,0,12,3.4,15.1,9.7c0.5,0.9,0.9,1.2,1.9,1.2c12.7,0,25.3,0,38,0H119.5z
			 M164.9,113.7h-1.8c-9.8,0-19.5,0-29.3,0c-2.4,0-3.4-1-3.4-3.3c0-6.9,0-13.8,0-20.7c0-2.4,0.9-3.4,3.4-3.4c5.6,0,11.2,0,16.8,0
			c0.5,0,0.9,0,1.6-0.1c-0.6-1.2-1.1-2.2-1.6-3.2c-0.7-1.6-1.8-2.2-3.5-2.2c-6.9,0.1-13.9,0-20.8,0H125v49.2c2.3,0,4.6,0,6.9,0
			c0.8,0,1.2-0.2,1.5-1c2.8-6.2,7.7-9.7,14.5-9.9c6.9-0.2,12,3.1,15.3,9.1c0.2,0.3,0.4,0.7,0.7,1.3c0.4-0.9,0.9-1.5,0.9-2.1
			C164.9,123,164.9,118.4,164.9,113.7 M75.4,146.4h60.4c-0.9-1.7-2-3.3-2.7-5.1c-0.7-1.8-0.9-3.8-1.4-5.7H79.6
			C79.4,139.7,78.2,143.2,75.4,146.4 M136,108.2H163c-0.1-0.2-0.1-0.4-0.1-0.6c-2.5-5-5-10.1-7.6-15.1c-0.2-0.4-0.9-0.6-1.4-0.7
			c-4.4,0-8.8,0-13.1,0H136V108.2z M52.2,135.5c0,6,4.9,11,10.9,11c6,0,10.9-4.9,11-10.8c0.1-6-4.8-11-10.9-11.1
			C57.2,124.6,52.2,129.5,52.2,135.5 M137.6,135.5c0,6,4.9,11,11,11c6,0,10.9-4.9,10.9-10.9c0-6-4.9-11-10.9-11
			C142.5,124.6,137.6,129.5,137.6,135.5 M41.2,113.8h-5.4v5.3h5.4V113.8z"/>
		<path class="st0" d="M88.6,69.9c-5.6,0-11.1,0-16.7,0c-0.8,0-1.8-0.4-2.5-0.8c-0.9-0.6-1-1.7-0.7-2.7c0.4-1.1,1.2-1.7,2.3-1.8
			c0.8-0.1,1.6,0,2.5,0c10.3,0,20.7,0,31,0c0.4,0,0.8,0,1.2,0c1.6,0.1,2.7,1.2,2.7,2.7c0,1.5-1.1,2.7-2.8,2.8c-3.1,0-6.1,0-9.2,0
			C93.9,69.9,91.2,69.9,88.6,69.9"/>
		<path class="st0" d="M94,75.4c3.7,0,7.5,0,11.2,0c2.1,0,3.3,1.1,3.3,2.8c0,1.6-1.3,2.7-3.3,2.7c-7.5,0-14.9,0-22.4,0
			c-2.1,0-3.3-1.1-3.3-2.8c0-1.7,1.3-2.7,3.3-2.7C86.6,75.4,90.3,75.4,94,75.4"/>
		<path class="st0" d="M60.4,69.9c-1.5,0-2.8-1.3-2.8-2.8c0-1.5,1.2-2.7,2.7-2.7c1.5,0,2.8,1.3,2.8,2.8
			C63.1,68.7,61.9,69.9,60.4,69.9"/>
		<path class="st0" d="M63,141c-3-0.1-5.4-2.6-5.4-5.6c0.1-3,2.6-5.4,5.6-5.4c3,0.1,5.4,2.6,5.4,5.6C68.5,138.7,66,141.1,63,141"/>
		<path class="st0" d="M148.5,141c-3,0-5.5-2.4-5.5-5.4c0-3,2.4-5.5,5.4-5.5c3,0,5.5,2.4,5.5,5.4S151.5,141,148.5,141"/>
	</g>
</g>
</svg>
