<?xml version="1.0" encoding="utf-8"?>
<!-- Generator: Adobe Illustrator 23.0.1, SVG Export Plug-In . SVG Version: 6.00 Build 0)  -->
<svg version="1.1" id="Layer_1" xmlns="http://www.w3.org/2000/svg" xmlns:xlink="http://www.w3.org/1999/xlink" x="0px" y="0px"
	 viewBox="0 0 513.6 513.4" style="enable-background:new 0 0 513.6 513.4;" xml:space="preserve">
<style type="text/css">
	.st0{fill:#F3E820;}
</style>
<path class="st0" d="M513.6,241.6v30.1c-0.3,1.8-0.7,3.5-0.9,5.3c-1.2,9.3-1.9,18.6-3.7,27.8c-9.7,51.2-33,95.3-69.6,132.3
	c-38.4,38.7-84.5,63.1-138.3,72.4c-9.7,1.7-19.5,2.6-29.2,3.9h-30.1c-1.5-0.3-2.9-0.6-4.4-0.9c-14-2.2-28.2-3.3-42-6.6
	C63.7,474.4-21.2,342,4.6,208.7C15.3,153.2,41.2,106,82.9,68C142.4,13.9,212.6-7.7,292.2,2.4C343,8.9,387.6,29.7,426,63.5
	c45.1,39.9,73.4,89.5,83.7,148.9C511.4,222.1,512.3,231.9,513.6,241.6 M428.1,404.2c71.4-79.1,81.6-220.5-17-313.6
	c-94-88.7-246.5-78.8-328.9,21.8C-0.5,213.5,26.9,341.8,85.9,404c7.4-28.1,20.5-53,39.9-74.4c19.4-21.5,42.9-37.2,70.4-47.7
	c-59.7-42.9-58.3-119.5-19.7-161.7c40.1-43.8,107.6-48.3,151.1-9.6c23.5,21,36.6,47.2,37.2,78.7c0.8,38.6-15.7,69.1-46.9,92.3
	C374.7,304.7,411.2,345.3,428.1,404.2 M261,483.4c5.4-0.4,15.1-0.9,24.7-2.1c38.6-4.8,73.5-18.9,104.8-41.9
	c12.7-9.3,12.5-9.6,8.7-25.3c-18.2-75.7-90.4-123.5-167.1-110.6c-62.2,10.5-111.7,61.6-120,124.2c-0.2,1.5,0.9,3.8,2.1,4.8
	C155.9,465.9,203.4,482.7,261,483.4 M256.8,270.1c42.8,0,77.7-34.7,78.1-77.6c0.3-42.7-35.1-78.2-78-78.3
	c-42.9,0-78.3,35.4-78.1,78.2C179.1,235.3,214,270.1,256.8,270.1"/>
</svg>
