<?xml version="1.0" encoding="utf-8"?>
<!-- Generator: Adobe Illustrator 23.0.1, SVG Export Plug-In . SVG Version: 6.00 Build 0)  -->
<svg version="1.1" id="Layer_1" xmlns="http://www.w3.org/2000/svg" xmlns:xlink="http://www.w3.org/1999/xlink" x="0px" y="0px"
	 viewBox="0 0 531.1 210.4" style="enable-background:new 0 0 531.1 210.4;" xml:space="preserve">
<style type="text/css">
	.st0{fill:#F3E820;}
	.st1{fill:#00698C;}
</style>
<g>
	<path class="st0" d="M514.3,143.9C493.4,63,360.9,61.6,360.9,61.6s-67.2-73.3-178.4-45.1C154,23.7,82.1,54,82.1,54l-58.9,7.6
		c0,0-27.1,63.9-19.9,71.9c7.2,7.9,51.6,28.2,51.6,28.2h4c0-66.4,92.4-65,92.4,0h204.7c0-54.4,92.4-58.3,92.4,0h80.2v-8.3
		L514.3,143.9z M113.2,58c0,0,35-19.9,80.2-30.7L214.6,58H113.2z M306,44.6c-18,0.4-22,6.9-19.5,13h-69l-21.7-31.1
		c15.5-3.6,32.1-5.8,49.1-5.8c41.2,0,71.1,17.3,85.6,28.2C323.7,46,315.7,44.6,306,44.6 M472.8,113.2c0,0-17.7-5.8-35.4-26.7
		c0,0,26,0,51.6,26.7H472.8z M496.3,143.9c0,0-8.7-7.2-1.4-22.7c0,0,5.8,4,11.6,22.7H496.3z"/>
	<g>
		<path class="st1" d="M69.5,56.4h-4.7V40.2H32.4v16.2h-4.7V40.2h-6.9c-6.4,0-11.6-5.2-11.6-11.6V11.6c0-3.4,1.5-6.6,4.1-8.9
			c2.6-2.2,6-3.2,9.4-2.6l46.4,7.6c5.7,0.9,9.8,5.7,9.8,11.5v9.4c0,5.6-4,10.3-9.3,11.4V56.4z M20.8,4.7c-1.6,0-3.2,0.6-4.5,1.7
			c-1.5,1.3-2.4,3.3-2.4,5.3v16.9c0,3.8,3.1,6.9,6.9,6.9h46.4c3.8,0,6.9-3.1,6.9-6.9v-9.4c0-3.4-2.4-6.3-5.8-6.8L21.9,4.8
			C21.5,4.7,21.1,4.7,20.8,4.7"/>
		<g>
			<g>
				<path class="st1" d="M401.9,210.4c-24.3,0-44.1-19.8-44.1-44.1c0-24.3,19.8-44.1,44.1-44.1c24.3,0,44.1,19.8,44.1,44.1
					C446.1,190.6,426.3,210.4,401.9,210.4 M401.9,126.9c-21.7,0-39.4,17.7-39.4,39.4c0,21.7,17.7,39.4,39.4,39.4
					c21.7,0,39.4-17.7,39.4-39.4C441.4,144.5,423.7,126.9,401.9,126.9"/>
				<path class="st1" d="M105.9,210.4c-24.3,0-44.1-19.8-44.1-44.1c0-24.3,19.8-44.1,44.1-44.1c24.3,0,44.1,19.8,44.1,44.1
					C150,190.6,130.2,210.4,105.9,210.4 M105.9,126.9c-21.7,0-39.4,17.7-39.4,39.4c0,21.7,17.7,39.4,39.4,39.4
					c21.7,0,39.4-17.7,39.4-39.4C145.3,144.5,127.6,126.9,105.9,126.9"/>
			</g>
			<path class="st1" d="M531.1,163.9h-82.5v-4.7h77.8v-4.7l-14.1-9.2l-0.2-0.9c-2.6-10.2-7.3-19.6-13.8-28c-0.2,0.1-0.4,0.2-0.6,0.4
				c-3.5,2.2-10,6.2-18.4,2l2.1-4.2c6.1,3,10.3,0.3,13.8-1.8c0,0,0.1,0,0.1-0.1c-41-47.3-133.5-48.9-134.4-48.9l-1,0l-0.7-0.8
				c-0.7-0.7-67.6-71.9-176.1-44.5c-28,7.1-99.3,37.1-100,37.4l-0.6,0.2l-57.5,7.4c-12.5,29.8-23.5,64-19.8,68.1
				c5.6,6.1,37.8,21.6,50.4,27.4H59v4.7l-4.9-0.2c-1.8-0.8-44.9-20.5-52.4-28.7c-7.6-8.4,12.9-59,19.4-74.3l0.5-1.2l59.9-7.7
				c5.7-2.4,72.7-30.5,100.4-37.5c105.2-26.6,172.4,37.4,180,45.1c10.9,0.3,99.2,3.8,138.9,52.8l-1.8,1.5l1.8-1.5
				c7.4,9.1,12.6,19.3,15.6,30.4l14.8,9.6V163.9z M345.3,163.9H158.7v-4.7h186.7V163.9z"/>
		</g>
	</g>
</g>
</svg>
