<?xml version="1.0" encoding="utf-8"?>
<!-- Generator: Adobe Illustrator 23.0.1, SVG Export Plug-In . SVG Version: 6.00 Build 0)  -->
<svg version="1.1" id="Layer_1" xmlns="http://www.w3.org/2000/svg" xmlns:xlink="http://www.w3.org/1999/xlink" x="0px" y="0px"
	 viewBox="0 0 530.9 281.7" style="enable-background:new 0 0 530.9 281.7;" xml:space="preserve">
<style type="text/css">
	.st0{fill:#00698C;}
	.st1{fill-rule:evenodd;clip-rule:evenodd;fill:#F3E820;}
	.st2{fill:#F3E820;}
</style>
<g>
	<g>
		<path class="st0" d="M90.7,281.7c-28.4,0-51.5-23.1-51.5-51.5c0-28.4,23.1-51.5,51.5-51.5c28.4,0,51.5,23.1,51.5,51.5
			C142.2,258.6,119.1,281.7,90.7,281.7 M90.7,185.3c-24.8,0-44.9,20.1-44.9,44.9c0,24.8,20.1,44.9,44.9,44.9
			c24.8,0,44.9-20.2,44.9-44.9C135.7,205.4,115.5,185.3,90.7,185.3"/>
		<g>
			<path class="st1" d="M510.7,217.9h13.6l0.1-46.2c0-27.3-22.1-49.4-49.4-49.4h0h-87.8L309,6.5H104L6.4,117.1H7v100.8h24.7l0-0.3
				c3.9-31.3,30.6-55.6,63-55.6h0.1h0c32.2,0.4,58.8,24.4,63.1,55.9h226.4l0-0.3c3.9-31.3,30.6-55.6,63-55.6h0.3h0
				C479.9,162.4,506.4,186.4,510.7,217.9 M174.3,122.3H16.8l93.7-106.7h63.8V122.3z M186.6,121.6v-106h117.1l70.9,106H186.6z"/>
			<g>
				<path class="st0" d="M449.6,281.7c-28.4,0-51.5-23.1-51.5-51.5c0-28.4,23.1-51.5,51.5-51.5c28.4,0,51.5,23.1,51.5,51.5
					C501,258.6,478,281.7,449.6,281.7 M449.6,185.3c-24.8,0-44.9,20.1-44.9,44.9c0,24.8,20.1,44.9,44.9,44.9
					c24.8,0,44.9-20.2,44.9-44.9C494.5,205.4,474.3,185.3,449.6,185.3"/>
				<path class="st0" d="M524.4,217.9v6.5h6.5l0-6.5L524.4,217.9z M320.5,23.6l-5.4,3.6L320.5,23.6z M375.6,105.2l5.4-3.6
					L375.6,105.2z M524.5,171.7l6.5,0v0H524.5z M6.5,129.7l6.5,0L6.5,129.7z M13.7,106.8l-5.3-3.8L13.7,106.8z M55.2,48.8l-4.2-4.9
					l-0.6,0.5l-0.4,0.6L55.2,48.8z M93,16l4.2,4.9L93,16z M510.7,137.5l5.4-3.6l-0.7-1l-1-0.7L510.7,137.5z M524.4,211.4h-13.6v13
					h13.6V211.4z M118.5,13h169.8V0H118.5V13z M315.2,27.2l55.1,81.6l10.7-7.2L325.9,20L315.2,27.2z M518,171.7l-0.1,46.2l13,0
					l0.1-46.2L518,171.7z M407.8,128.8h67.2v-13h-67.2V128.8z M168.2,224.4h196.2v-13H168.2V224.4z M13.5,217.8L13,129.6l-13,0.1
					l0.6,88.2L13.5,217.8z M19,110.6l41.5-58l-10.5-7.5l-41.5,58L19,110.6z M59.4,53.7l37.8-32.8l-8.5-9.8L50.9,43.9L59.4,53.7z
					 M475.1,128.8c5.3,0,12.9,3.1,20.1,6.9c3.4,1.8,6.4,3.6,8.5,5c1.1,0.7,1.9,1.2,2.5,1.6c0.3,0.2,0.5,0.3,0.6,0.4
					c0.1,0.1,0.1,0.1,0.2,0.1c0,0,0,0,0,0c0,0,0,0,0,0c0,0,0,0,3.7-5.3c3.7-5.3,3.7-5.3,3.7-5.3h0c0,0,0,0,0,0c0,0,0,0,0,0
					c0,0,0,0-0.1,0c-0.1,0-0.1-0.1-0.2-0.1c-0.2-0.1-0.4-0.3-0.8-0.5c-0.7-0.4-1.6-1.1-2.8-1.8c-2.3-1.5-5.6-3.5-9.4-5.5
					c-7.2-3.8-17.4-8.4-26.1-8.4V128.8z M510.7,137.5c-5.4,3.6-5.4,3.6-5.4,3.6s0,0,0,0c0,0,0,0,0,0c0,0,0,0.1,0.1,0.2
					c0.1,0.1,0.2,0.3,0.4,0.6c0.3,0.6,0.9,1.4,1.5,2.4c1.2,2.1,2.9,5,4.5,8.2c3.4,6.9,6.2,14.2,6.2,19.2h12.9
					c0-8.3-4.1-18.1-7.5-24.9c-1.8-3.6-3.6-6.8-5-9.1c-0.7-1.1-1.2-2.1-1.6-2.7c-0.2-0.3-0.4-0.6-0.5-0.7c-0.1-0.1-0.1-0.2-0.1-0.2
					c0,0,0,0,0-0.1c0,0,0,0,0,0c0,0,0,0,0,0c0,0,0,0,0,0L510.7,137.5z M370.3,108.8c8.4,12.5,22.5,20,37.6,20v-13
					c-10.7,0-20.8-5.3-26.8-14.2L370.3,108.8z M288.3,13c10.8,0,20.8,5.3,26.8,14.3l10.7-7.2c-8.4-12.5-22.5-20-37.6-20V13z
					 M118.5,0C107.6,0,97,3.9,88.8,11.1l8.5,9.8c5.9-5.1,13.4-7.9,21.2-7.9V0z M13,129.6c0-6.8,2.1-13.5,6-19l-10.5-7.5
					c-5.6,7.8-8.5,17.1-8.5,26.7L13,129.6z"/>
			</g>
		</g>
	</g>
	<polygon class="st2" points="48.8,68.9 57.9,53.6 67.9,46.4 67.9,57.6 	"/>
</g>
</svg>
