<?xml version="1.0" encoding="utf-8"?>
<!-- Generator: Adobe Illustrator 23.0.1, SVG Export Plug-In . SVG Version: 6.00 Build 0)  -->
<svg version="1.1" id="Layer_1" xmlns="http://www.w3.org/2000/svg" xmlns:xlink="http://www.w3.org/1999/xlink" x="0px" y="0px"
	 viewBox="0 0 533.3 278.7" style="enable-background:new 0 0 533.3 278.7;" xml:space="preserve">
<style type="text/css">
	.st0{fill:#F3E820;}
	.st1{fill:#00698C;}
</style>
<g>
	<path class="st0" d="M30.4,55.8c5.1,0,9.8,1.5,13.7,4.1l0.1-39.2c0,0-1.9-15.4,13.8-15.4c15.8,0,238.8,0,253,0
		c14.2,0,15.8,13.4,15.8,13.4l24.9,72.6c0,0,108.3,0.4,134,0.4c25.8,0,25.2,14.6,25.2,14.6v64.9c0,0.3,0,0.5,0,0.8h17v54.5h-57.5
		c0.7-3.8,1.1-7.8,1.1-11.9c0-35.3-28.6-63.9-64-63.9c-35.3,0-63.9,28.6-63.9,63.9c0,4.1,0.4,8,1.1,11.9H196.2
		c0.7-3.8,1.1-7.8,1.1-11.9c0-35.3-28.6-63.9-63.9-63.9c-35.3,0-63.9,28.6-63.9,63.9c0,4.2,0.4,8.2,1.1,12.2l-26.8,0.5H16.1v-33.8
		h27.7v0.6l0.1-21.3c-3.9,2.5-8.5,4-13.5,4c-13.8,0-24.9-11.2-24.9-25v-71C5.4,67,16.6,55.8,30.4,55.8 M206.6,92.1h110.6L298.7,23
		h-92.2L206.6,92.1z M68.3,93.7h121.3V23H68.3V93.7z"/>
	<g>
		<path class="st1" d="M136.7,278.7c-35.5,0-64.3-28.8-64.3-64.3c0-35.5,28.8-64.3,64.3-64.3c35.5,0,64.3,28.8,64.3,64.3
			C201,249.8,172.2,278.7,136.7,278.7 M136.7,160.8c-29.5,0-53.6,24-53.6,53.6c0,29.5,24,53.6,53.6,53.6c29.5,0,53.6-24,53.6-53.6
			C190.3,184.8,166.2,160.8,136.7,160.8"/>
		<path class="st1" d="M404.6,278.7c-35.5,0-64.3-28.8-64.3-64.3c0-35.5,28.8-64.3,64.3-64.3c35.5,0,64.3,28.8,64.3,64.3
			C468.9,249.8,440.1,278.7,404.6,278.7 M404.6,160.8c-29.5,0-53.6,24-53.6,53.6c0,29.5,24,53.6,53.6,53.6c29.5,0,53.6-24,53.6-53.6
			C458.2,184.8,434.2,160.8,404.6,160.8"/>
		<path class="st1" d="M16.1,232.6c-3,0-5.4-2.4-5.4-5.4v-33.8c0-3,2.4-5.4,5.4-5.4h22.4l0-7.1c-2.6,0.7-5.3,1.1-8.1,1.1
			C13.6,182.1,0,168.5,0,151.8v-71c0.1-16.7,13.7-30.3,30.4-30.3c2.8,0,5.6,0.4,8.3,1.2l0.1-31c-0.1-0.3-1-8.7,4.5-14.8
			C45.7,3.2,50.1,0,58,0c15.8,0,238.8,0,253,0c14.5,0,20,11.1,21,17.5L355.5,86c19.4,0.1,107.3,0.4,130.2,0.4
			c11.7,0,20.3,2.8,25.5,8.3c5.1,5.3,5.1,11.2,5.1,11.9l0,60.1h11.6c3,0,5.4,2.4,5.4,5.4v54.5c0,3-2.4,5.4-5.4,5.4h-46.8
			c-3,0-5.4-2.4-5.4-5.4c0-3,2.4-5.4,5.4-5.4h41.5v-43.8h-11.6c-3,0-5.4-2.4-5.4-5.4l0-65.6c-0.1-3.5-4.4-9.2-19.9-9.2
			c-25.8,0-134.1-0.4-134.1-0.4c-2.3,0-4.3-1.5-5-3.6l-24.9-72.6c-0.1-0.4-0.2-0.7-0.3-1.1c-0.2-1.4-1.7-8.7-10.4-8.7
			c-14.2,0-237.2,0-253,0c-3.1,0-5.3,0.7-6.6,2.2c-2,2.2-2,5.9-1.9,7.2L49.4,60c0,2-1.1,3.8-2.8,4.7c-1.7,0.9-3.8,0.8-5.5-0.2
			c-3.2-2.1-6.9-3.2-10.7-3.2c-10.8,0-19.6,8.8-19.7,19.6v71c0,10.8,8.8,19.6,19.6,19.6c3.8,0,7.4-1.1,10.6-3.1
			c1.6-1.1,3.8-1.2,5.5-0.2c1.7,0.9,2.8,2.8,2.8,4.7l-0.1,21.3c0,3-2.4,5.3-5.4,5.3h0c-0.9,0-1.8-0.2-2.5-0.6H21.4v23.1l38.3-0.5
			c3,0,5.4,2.2,5.5,5.2c0.1,3-2.2,5.4-5.2,5.5l-16.1,0.5H16.1z M323.3,231.8H217.6c-3,0-5.4-2.4-5.4-5.4c0-3,2.4-5.4,5.4-5.4h105.7
			c3,0,5.4,2.4,5.4,5.4C328.6,229.4,326.2,231.8,323.3,231.8"/>
	</g>
</g>
</svg>
