<?xml version="1.0" encoding="utf-8"?>
<!-- Generator: Adobe Illustrator 23.0.1, SVG Export Plug-In . SVG Version: 6.00 Build 0)  -->
<svg version="1.1" id="Layer_1" xmlns="http://www.w3.org/2000/svg" xmlns:xlink="http://www.w3.org/1999/xlink" x="0px" y="0px"
	 viewBox="0 0 428.9 237.3" style="enable-background:new 0 0 428.9 237.3;" xml:space="preserve">
<style type="text/css">
	.st0{fill:#878787;}
	.st1{fill:#F3E820;}
	.st2{fill:#00698C;}
	.st3{fill:#FFFFFF;}
</style>
<g>
	<path class="st0" d="M99.8,56c0-8.4-6.3-16.4-15.4-16.9V22.5c0-8.7-6.6-16.9-16.3-16.9c-7.6,0-13.3,5.1-15.4,11.5
		c-2.1-6.4-7.8-11.5-15.4-11.5C27.6,5.5,21,13.8,21,22.5V39C11.8,39.5,5.5,47.5,5.5,56v16.7c0,21.3,12.6,40.1,30.9,47.3v50
		c0,31.8,24,58.8,54.9,58.8h8.6v-8.6c0-5.2,0-7.5,0.1-9.2c0-2.2,0.1-3.2-0.1-7.8l-0.3-8.3h-8.3C79.6,194.8,69,184.3,69,170v-50
		c18.3-7.2,30.9-26,30.9-47.3V56z"/>
	<g>
		<g>
			<path class="st1" d="M46.3,165.8v-37.4c0-2.7,1.8-5.1,4.4-5.9L87,110.8c13.7-22.4,32.5-43.8,74-50.8c0.1,0,0.2,0,0.2,0
				c76.7-10.3,134.4,6.5,171.4,49.8c27.5,0.4,55.6,6,72.2,16.2c8.6,5.3,13.6,14.5,14.1,24.4l0.7,15.5c3.6,0,6.4,2.8,6.4,6.2V197
				c0,3.4-2.9,6.2-6.4,6.2H394c-3.6,0-6.4-2.8-6.4-6.3c0,0,0-0.1,0-0.1c-0.1-24-20.2-43.4-45.1-43.4c-24.9,0-45.1,19.5-45.1,43.6
				c0.5,3.8-2.6,6.2-6.4,6.2H175.1c-3.6,0-6.4-2.8-6.4-6.3c0,0,0-0.1,0-0.1c-0.1-24-20.2-43.4-45.1-43.4
				c-24.9,0-45.1,19.5-45.1,43.6c0.5,3.8-2.6,6.2-6.4,6.2H46.3c-3.6,0-6.4-2.8-6.4-6.2v-24.9C39.9,168.6,42.8,165.8,46.3,165.8
				 M220.1,106.6c0,1.7,1.4,3.1,3.2,3.1h84c3,0,4.3-3.5,2.1-5.5c-22.3-19.7-50.7-31-85.8-34c-1.9-0.2-3.6,1.3-3.6,3.1V106.6z
				 M142.8,106.7c0,1.7,1.5,3.1,3.2,3.1h58c1.8,0,3.2-1.4,3.2-3.1v-34c0-1.7-1.4-3.1-3.2-3.1c-12.8,0-26.4,0.9-40.9,2.8
				c-6.9,1.2-13,2.8-18.6,4.8c-1.3,0.5-2.1,1.7-2.1,3L142.8,106.7z M109.2,109.8h17.5c1.8,0,3.2-1.4,3.2-3.1l-0.2-16.9
				c0-2.6-3.1-4-5.2-2.4c-7,4.9-12.7,10.8-17.9,17.4C105,106.8,106.5,109.8,109.2,109.8"/>
			<g>
				<path class="st2" d="M123.4,237.3c-18.8,0-34.1-15.3-34.1-34.1c0-18.8,15.3-34.1,34.1-34.1c18.8,0,34.1,15.3,34.1,34.1
					C157.5,222,142.2,237.3,123.4,237.3 M123.4,174.7c-15.7,0-28.5,12.8-28.5,28.5s12.8,28.5,28.5,28.5c15.7,0,28.5-12.8,28.5-28.5
					S139.1,174.7,123.4,174.7"/>
				<path class="st2" d="M342.6,237.3c-18.8,0-34.1-15.3-34.1-34.1c0-18.8,15.3-34.1,34.1-34.1c18.8,0,34.1,15.3,34.1,34.1
					C376.7,222,361.4,237.3,342.6,237.3 M342.6,174.7c-15.7,0-28.5,12.8-28.5,28.5s12.8,28.5,28.5,28.5c15.7,0,28.5-12.8,28.5-28.5
					S358.4,174.7,342.6,174.7"/>
				<path class="st2" d="M419.7,206h-15.3v-5.5h15.3c2,0,3.7-1.6,3.7-3.5v-24.9c0-1.9-1.6-3.5-3.7-3.5h-2.6l-0.9-18.1
					c-0.4-9.2-5.2-17.5-12.8-22.2c-15.1-9.3-42.2-15.4-70.8-15.8l-1.3,0l-0.8-1c-36.3-42.5-93.2-59-168.9-48.9
					c-41.2,7-59.1,27.9-72.3,49.5l-0.5,0.9l-37.3,12c-1.5,0.5-2.5,1.8-2.5,3.3v40.2h-2.8c-1,0-1.9,0.4-2.6,1c-0.7,0.6-1,1.5-1,2.4
					V197c0,1.9,1.6,3.5,3.7,3.5h12.9v5.5H46.3c-5.1,0-9.2-4-9.2-9v-24.9c0-2.4,1-4.7,2.7-6.4c1.1-1,2.3-1.8,3.7-2.2v-35
					c0-3.9,2.5-7.3,6.3-8.6l35.3-11.4c13.2-21.4,32.6-44,75.4-51.2C238.1,46.9,296.3,63.7,334,107c29.5,0.6,56.5,6.7,72.3,16.6
					c9.1,5.7,14.9,15.6,15.4,26.6l0.6,13.2c3.8,1.1,6.6,4.6,6.6,8.6V197C428.9,201.9,424.8,206,419.7,206 M280.5,206h-89.3v-5.5
					h89.3V206z"/>
			</g>
			<g>
				<path class="st3" d="M105.4,234.3H91.3c-33.3,0-60.4-28.9-60.4-64.3v-46.3C12.3,114.6,0,94.6,0,72.7V56
					c0-10.1,6.5-18.7,15.4-21.5V22.5C15.4,10.1,25.2,0,37.3,0c6,0,11.5,2.4,15.5,6.6c4-4.1,9.5-6.6,15.4-6.6C80.2,0,90,10.1,90,22.5
					v11.9c9,2.8,15.4,11.4,15.4,21.5v16.7c0,21.9-12.3,41.9-30.9,50.9V170c0,11.9,8.7,19.3,16.7,19.3h13.7l0.5,13.7
					c0.2,4.8,0.1,5.8,0.1,8.1c0,1.7-0.1,4-0.1,9.1V234.3z M37.3,11.1c-6.6,0-10.8,5.9-10.8,11.4v21.8l-5.3,0.3
					c-6.4,0.3-10.2,6.1-10.2,11.4v16.7c0,18.8,11,35.7,27.3,42.2l3.5,1.4V170c0,29.4,22.1,53.2,49.3,53.2h3v-3c0-5.2,0-7.6,0.1-9.3
					c0-2.1,0.1-3.1-0.1-7.5l-0.1-2.9h-2.9c-15.3,0-27.8-13.6-27.8-30.4v-53.7l3.5-1.4c16.4-6.4,27.3-23.4,27.3-42.2V56
					c0-5.3-3.8-11.1-10.2-11.4l-5.3-0.3V22.5c0-5.5-4.1-11.4-10.8-11.4c-5.6,0-9,4.2-10.2,7.7l-5.3,16.1l-5.3-16.1
					C46.3,15.2,42.9,11.1,37.3,11.1"/>
				<path class="st1" d="M92.1,43.3h-3.4V22.5c0-6.7-5-12.7-12-12.7c-7,0-12,6-12,12.7v20.8h-6.8V22.5c0-6.7-5-12.7-12-12.7
					c-7,0-12,6-12,12.7v20.8h-3.4c-7,0-12,6-12,12.7v16.7c0,20.8,12.9,38.6,30.9,44.3v53c0,29.7,22.4,54.5,50.6,54.5h4.3v-4.3
					c0-5.5,0.1-7.8,0.1-9.4c0-2.1,0.1-2.9-0.1-7.5l-0.1-4.1h-4.1c-14.3,0-26.6-12.8-26.6-29.2v-53c18-5.6,30.9-23.5,30.9-44.3V56
					C104.1,49.3,99.1,43.3,92.1,43.3"/>
			</g>
		</g>
		<path class="st2" d="M106.9,227.2h-7.1c-29.4,0-53.3-25.7-53.3-57.3v-51c-18.3-6.7-30.9-25.4-30.9-46.3V56
			c0-8.5,6.6-15.4,14.8-15.4h0.6v-18c0-8.5,6.6-15.4,14.8-15.4c8.1,0,14.8,6.9,14.8,15.4v18h1.3v-18c0-8.5,6.6-15.4,14.8-15.4
			c8.1,0,14.8,6.9,14.8,15.4v18h0.6c8.1,0,14.8,6.9,14.8,15.4v16.7c0,20.8-12.6,39.5-30.9,46.3v51c0,14.6,10.7,26.4,23.8,26.4h6.8
			l0.2,6.8c0.2,4.7,0.1,5.5,0.1,7.6c0,1.6-0.1,3.9-0.1,9.3V227.2z M30.4,46.1c-5.1,0-9.2,4.4-9.2,9.9v16.7
			c0,19.2,11.9,36.3,28.9,41.6l1.9,0.6v55c0,28.5,21.4,51.7,47.8,51.7h1.5v-1.5c0-5.5,0-7.8,0.1-9.5c0-2,0.1-2.8-0.1-7.3l-0.1-1.5
			h-1.5c-16.2,0-29.3-14.3-29.3-31.9v-55l1.9-0.6c17-5.3,28.9-22.5,28.9-41.6V56c0-5.5-4.1-9.9-9.2-9.9h-6.2V22.5
			c0-5.5-4.1-9.9-9.2-9.9c-5.1,0-9.2,4.4-9.2,9.9v23.6H55.1V22.5c0-5.5-4.1-9.9-9.2-9.9c-5.1,0-9.2,4.4-9.2,9.9v23.6H30.4z"/>
	</g>
</g>
</svg>
