<?xml version="1.0" encoding="utf-8"?>
<!-- Generator: Adobe Illustrator 23.0.1, SVG Export Plug-In . SVG Version: 6.00 Build 0)  -->
<svg version="1.1" id="Layer_1" xmlns="http://www.w3.org/2000/svg" xmlns:xlink="http://www.w3.org/1999/xlink" x="0px" y="0px"
	 viewBox="0 0 429.5 169.9" style="enable-background:new 0 0 429.5 169.9;" xml:space="preserve">
<style type="text/css">
	.st0{fill-rule:evenodd;clip-rule:evenodd;fill:#F3E820;}
	.st1{fill:#00698C;}
</style>
<g>
	<path class="st0" d="M13.6,137.1c-0.3,0-0.5-0.3-0.8-0.3c-5.7-1.1-8.1-0.3-8.9-7.6c-1.1-8.7-0.8-22.2-1.1-27.3
		c-0.3-3.8,0.3-7,4.1-7.8c2.2-0.5,4.6-0.8,4.6-1.9c0.8-13,2.7-23.3,5.7-32.8c4.9-16,9.7-29.2,18.9-47.4c4.9-9.7,3.2-9.2,15.7-9.2
		c45.7,0,93.9-0.5,140.2,0.5c31.1,0.5,61.2,0.8,74.2,4.9c16.8,9.2,32.5,31.9,44.1,41.4c30,3.2,63.3,5.4,93.9,13
		c10.8,2.7,14.3,3,16.2,14.3c1.1,6.5,1.4,13.8,2.2,17.6h1.9c1.6,0,1.9,1.9,1.9,3.8c0.3,6.8,0.8,21.4-0.3,29.8
		c-1.1,7-4.9,9.2-11.1,9.2h-11.1c-8.7,0-7-0.8-7.8-9.2c-1.6-23.3-21.1-42-44.9-42c-23.8,0-43.3,18.4-44.9,41.7
		c-0.5,8.9,1.1,9.2-8.1,9.2H120.2c-10.6,0-8.4-0.5-9.7-10.8c-2.4-22.5-21.7-40.1-44.9-40.1c-23.5,0-43,18.1-44.9,41.4
		c-0.5,5.1,1.1,9.7-4.3,9.7h-2.7V137.1z M274.5,55.6c2.2-1.9,8.1-8.4,13-12.5c0.5-0.5,1.1-1.1,0.5-1.6
		c-8.9-11.6-16.5-18.1-24.9-24.9c-6-1.9-40.1-3-50.9-3.2c-4.6,0-9.5-0.3-14.1-0.3c-2.4,0-3,1.1-2.2,3.2c1.4,7,3.5,21.4,5.1,31.1
		c0.8,4.9,1.9,7.6,6.8,7.3C226.9,55.6,274.8,57.3,274.5,55.6 M114.3,48.1c0.8-8.4,5.1-21.1,7.9-29.5c1.1-3.2,2.2-6.2,5.7-6.2
		c18.1,0.5,34.6,0.3,52.5,0.8c1.4,0,3.2,0.8,3.5,1.6c1.9,5.1,2.4,12.5,5.1,33.8c0.8,6,0.3,6.8-6.2,6.5c-14.3,0-41.7,0-61.2-0.5
		C115.7,54.6,113.5,55.1,114.3,48.1 M89.4,48.6c3-6.8,7.9-18.1,12.5-28.4c2.7-6,2.7-7.9-4.3-8.1c-13.8-0.3-39.8,0-49.8,0.3
		c-0.8,0-3.5,1.4-4.1,2.2c-2.7,5.1-5.4,10.6-13.3,32.2c-2.2,6-1.1,8.1,3,7.9c9.5-0.3,33,0,47.1,0C85.1,54.8,87.5,52.4,89.4,48.6"/>
	<path class="st1" d="M351.1,169.9c-21.4,0-38.7-17.4-38.7-38.7s17.4-38.7,38.7-38.7c21.4,0,38.7,17.4,38.7,38.7
		S372.5,169.9,351.1,169.9 M351.1,97.9c-18.3,0-33.3,14.9-33.3,33.3c0,18.3,14.9,33.3,33.3,33.3c18.3,0,33.3-14.9,33.3-33.3
		C384.4,112.8,369.5,97.9,351.1,97.9 M65.6,169.9c-21.4,0-38.7-17.4-38.7-38.7s17.4-38.7,38.7-38.7c10.5,0,20.4,4.1,27.7,11.6
		c7.2,7.3,11.1,17,11,27.2C104.3,152.5,86.9,169.9,65.6,169.9 M65.6,97.9c-18.3,0-33.3,14.9-33.3,33.3c0,18.3,14.9,33.3,33.3,33.3
		c18.3,0,33.3-14.9,33.3-33.3c0.1-8.8-3.2-17-9.4-23.3C83.1,101.4,74.6,97.9,65.6,97.9 M415,140.1h-11.1v-5.5H415
		c5.5,0,7.6-1.7,8.4-6.9c1.1-8.3,0.5-23.5,0.2-29.3c0-0.5,0-0.9-0.1-1.2h-3.2l-0.5-2.2c-0.4-2-0.7-4.8-1-8c-0.3-3.1-0.6-6.5-1.2-9.7
		c-1.5-9-3.2-9.4-12.6-11.7l-1.6-0.4c-24.3-6-50.2-8.6-75.3-11.1c-6.2-0.6-12.3-1.2-18.3-1.9l-0.8-0.1l-0.6-0.5
		c-4.5-3.7-9.6-9.2-14.9-15.1c-8.8-9.6-18.7-20.5-28.8-26c-11.4-3.5-38.6-4-67.5-4.4l-5.4-0.1c-34.8-0.8-70.8-0.7-105.7-0.6
		c-11.6,0-23.1,0.1-34.5,0.1l-1.9,0c-7.6-0.1-7.6,0-10.1,5.1l-1.3,2.6c-9.3,18.3-14.1,31.6-18.8,46.9c-3,9.7-4.8,19.9-5.6,32.1
		c0,2.9-3.3,3.6-5.4,4.1l-1.2,0.3c-1.1,0.2-2.3,0.5-2,5c0.1,1.7,0.1,4.2,0.2,7.1c0.1,6,0.2,14.3,0.9,20.1c0.5,4.2,0.6,4.3,4.4,4.8
		c0.7,0.1,1.5,0.2,2.3,0.4l0.7,0.2h2.3l0,5.7h-5.4v-0.8c-0.3,0-0.5-0.1-0.7-0.1c-5-0.8-8.1-1.8-9-9.6c-0.8-6.1-0.9-14.5-0.9-20.7
		c0-2.8-0.1-5.2-0.1-6.8c-0.4-6.1,1.7-9.7,6.2-10.7l1.3-0.3c0.4-0.1,0.8-0.2,1.2-0.3c0.8-12.3,2.7-22.5,5.7-32.2
		c4.8-15.6,9.6-29.1,19.1-47.8l1.3-2.5c3.8-7.9,5-8.2,15-8.2l1.9,0c11.3,0,22.8,0,34.4-0.1c34.9-0.1,71-0.2,105.8,0.6l5.4,0.1
		c29.3,0.5,56.9,1,69.5,4.9c11.4,6.2,21.7,17.4,30.7,27.4c5,5.4,9.7,10.6,13.7,14c5.7,0.6,11.5,1.2,17.4,1.8
		c25.3,2.5,51.4,5.1,76.1,11.2l1.6,0.4c9.7,2.4,14.6,3.6,16.6,16.1c0.6,3.3,0.9,6.8,1.2,10c0.2,1.9,0.4,3.8,0.6,5.3
		c1.7,0.1,4.2,1.3,4.2,6.5c0.2,5.7,0.8,21.3-0.3,30.1C427.6,136.5,423.2,140.1,415,140.1 M14.4,134.5L14.4,134.5
		C14.4,134.5,14.4,134.5,14.4,134.5 M8.7,91.9c0,0.1,0,0.2,0,0.3C8.7,92.1,8.7,92,8.7,91.9 M298.1,139.8H120.2v-5.5h177.8V139.8z"/>
</g>
</svg>
