<?xml version="1.0" encoding="utf-8"?>
<!-- Generator: Adobe Illustrator 23.0.1, SVG Export Plug-In . SVG Version: 6.00 Build 0)  -->
<svg version="1.1" id="Layer_1" xmlns="http://www.w3.org/2000/svg" xmlns:xlink="http://www.w3.org/1999/xlink" x="0px" y="0px"
	 viewBox="0 0 533.3 237.3" style="enable-background:new 0 0 533.3 237.3;" xml:space="preserve">
<style type="text/css">
	.st0{fill:#F3E820;}
	.st1{fill:#00698C;}
</style>
<g>
	<g>
		<path class="st0" d="M49.6,146.5V99.2c0-3.4,2.2-6.4,5.6-7.5l45.9-14.8c17.3-28.3,41.1-55.3,93.6-64.2c0.1,0,0.2,0,0.3,0
			c97-13,169.9,8.2,216.6,63c34.8,0.5,70.3,7.5,91.2,20.5c10.8,6.7,17.2,18.4,17.8,30.8l0.9,19.6c4.5,0,8.1,3.5,8.1,7.9v31.5
			c0,4.3-3.6,7.9-8.1,7.9h-32.6c-4.5,0-8.1-3.6-8.1-8c0,0,0-0.1,0-0.1c-0.1-30.3-25.6-54.9-57-54.9c-31.5,0-57,24.7-57,55.1
			c0.6,4.8-3.3,7.9-8.1,7.9H212.4c-4.5,0-8.1-3.6-8.1-8c0,0,0-0.1,0-0.1c-0.1-30.3-25.6-54.9-57-54.9c-31.5,0-57,24.7-57,55.1
			c0.6,4.8-3.3,7.9-8.1,7.9H49.6c-4.5,0-8.1-3.5-8.1-7.9v-31.5C41.5,150,45.1,146.5,49.6,146.5 M269.4,71.6c0,2.2,1.8,3.9,4.1,3.9
			h106.1c3.8,0,5.5-4.5,2.7-6.9C354,43.7,318.1,29.5,273.9,25.7c-2.4-0.2-4.5,1.7-4.5,4V71.6z M171.6,71.7c0,2.2,1.8,3.9,4.1,3.9
			H249c2.2,0,4.1-1.8,4.1-3.9v-43c0-2.2-1.8-4-4-4c-16.2,0-33.4,1.1-51.7,3.6c-8.7,1.5-16.4,3.5-23.5,6c-1.6,0.6-2.7,2.1-2.6,3.8
			L171.6,71.7z M129.1,75.6h22.1c2.3,0,4.1-1.8,4.1-4l-0.2-21.3c0-3.2-3.9-5-6.6-3.1c-8.8,6.2-16.1,13.6-22.6,22
			C123.9,71.8,125.7,75.6,129.1,75.6"/>
		<g>
			<path class="st1" d="M147.1,236.8c-23.8,0-43.1-19.3-43.1-43.1c0-23.8,19.3-43.1,43.1-43.1c23.8,0,43.1,19.3,43.1,43.1
				C190.2,217.5,170.8,236.8,147.1,236.8 M147.1,157.6c-19.9,0-36.1,16.2-36.1,36.1c0,19.9,16.2,36.1,36.1,36.1
				c19.9,0,36.1-16.2,36.1-36.1C183.2,173.8,167,157.6,147.1,157.6"/>
			<path class="st1" d="M424.2,236.8c-23.8,0-43.1-19.3-43.1-43.1c0-23.8,19.3-43.1,43.1-43.1c23.8,0,43.1,19.3,43.1,43.1
				C467.3,217.5,448,236.8,424.2,236.8 M424.2,157.6c-19.9,0-36.1,16.2-36.1,36.1c0,19.9,16.2,36.1,36.1,36.1
				c19.9,0,36.1-16.2,36.1-36.1C460.3,173.8,444.1,157.6,424.2,157.6"/>
			<path class="st1" d="M521.7,197.2h-19.4v-7h19.4c2.6,0,4.6-2,4.6-4.4v-31.5c0-2.4-2.1-4.4-4.6-4.4h-3.3l-1.1-22.9
				c-0.6-11.6-6.6-22.1-16.2-28c-19-11.8-53.3-19.4-89.4-19.9l-1.6,0l-1-1.2C363,24.1,291.2,3.3,195.5,16.1
				c-52.1,8.8-74.7,35.3-91.4,62.6l-0.7,1.1L56.3,95.1c-1.9,0.6-3.1,2.3-3.1,4.1V150h-3.5c-1.3,0-2.4,0.5-3.3,1.3
				c-0.8,0.8-1.3,1.9-1.3,3v31.5c0,2.4,2.1,4.4,4.6,4.4h16.3v7H49.6c-6.4,0-11.6-5.1-11.6-11.4v-31.5c0-3.1,1.2-5.9,3.4-8.1
				c1.3-1.3,2.9-2.2,4.7-2.8V99.2c0-4.9,3.2-9.3,8-10.8L98.8,74c16.7-27,41.2-55.6,95.3-64.7c97.9-13.1,171.5,8.1,219.1,62.9
				c37.3,0.7,71.4,8.5,91.5,21c11.5,7.2,18.8,19.7,19.5,33.6l0.8,16.7c4.8,1.4,8.3,5.8,8.3,10.9v31.5
				C533.3,192.1,528.1,197.2,521.7,197.2 M345.7,197.2H232.9v-7h112.8V197.2z"/>
		</g>
	</g>
	<g>
		<polygon class="st0" points="8.9,3.5 3.5,3.5 3.5,8.9 3.5,116.4 3.5,121.8 8.9,121.8 32.8,121.8 32.8,204.3 32.8,224.3 42.9,207 
			111.3,89.8 116,81.6 106.6,81.6 76.3,81.6 111.4,11.4 115.4,3.5 106.6,3.5 		"/>
		<path class="st1" d="M29.3,237.3v-112H0V0h121L82,78.1h40.2L29.3,237.3z M7,118.3h29.3v93.1l73.6-126.2H70.6L109.7,7H7V118.3z"/>
	</g>
</g>
</svg>
