<?xml version="1.0" encoding="utf-8"?>
<!-- Generator: Adobe Illustrator 23.0.1, SVG Export Plug-In . SVG Version: 6.00 Build 0)  -->
<svg version="1.1" id="Layer_1" xmlns="http://www.w3.org/2000/svg" xmlns:xlink="http://www.w3.org/1999/xlink" x="0px" y="0px"
	 viewBox="0 0 513.6 513.4" style="enable-background:new 0 0 513.6 513.4;" xml:space="preserve">
<style type="text/css">
	.st0{fill:#999999;}
</style>
<path class="st0" d="M4.4,184c14.1-71.2,53.4-124,117.1-158.6c27.1-14.7,56.3-22.7,87.1-24.8c1.3-0.1,2.6-0.5,3.9-0.8h26.1
	c9.1,1.3,18.2,2.3,27.2,3.9c50.3,9.1,92.6,32.9,126.8,70.7c32.9,36.4,51.9,79.3,56.6,128c5.3,55.4-8.1,106.1-40,151.9
	c-0.9,1.2-1.7,2.5-2.6,3.7c-0.2,0.3-0.3,0.6-0.6,1.5c1.2,1.2,2.5,2.7,3.9,4.1c29.3,29.3,58.6,58.8,88.1,88
	c7.2,7.1,14,14.3,16.8,24.3v11c-2.3,8.3-5.8,16-13.3,20.8c-4.2,2.7-9.2,4.3-13.8,6.4h-10c-9.9-2.2-17.1-8.3-24.1-15.3
	c-29.8-29.8-59.9-59.3-89.9-88.9c-1.3-1.3-2.3-2.9-3.7-4.5c-4.9,3.3-9.1,6.2-13.4,8.9c-44.1,27.9-92.2,39.5-144,34.2
	C104,438.3,24.2,365.5,4.9,268.9c-2-9.9-3-20.1-4.4-30.2v-28.1C1.8,201.7,2.6,192.8,4.4,184 M225.4,385.4
	c88.5,0,160.7-72.1,160.7-160.7c0-88.6-72.1-160.6-160.7-160.6c-88.6,0-160.6,72-160.6,160.7C64.8,313.4,136.7,385.3,225.4,385.4"/>
</svg>
