<?xml version="1.0" encoding="utf-8"?>
<!-- Generator: Adobe Illustrator 23.0.1, SVG Export Plug-In . SVG Version: 6.00 Build 0)  -->
<svg version="1.1" id="Layer_1" xmlns="http://www.w3.org/2000/svg" xmlns:xlink="http://www.w3.org/1999/xlink" x="0px" y="0px"
	 viewBox="0 0 533.6 172.3" style="enable-background:new 0 0 533.6 172.3;" xml:space="preserve">
<style type="text/css">
	.st0{fill:#F3E820;}
	.st1{fill:#00698C;}
</style>
<g>
	<path class="st0" d="M3.3,111.2c0-2.2,5.3-2.2,5.3-4.1c0.8-13,1.5-27.4,3-40.8c1.9-15.9,35.3-16.7,55.8-23
		c14.8-4.4,26.6-14.1,45.6-22.2c20.5-8.9,38.7-17,60.4-17c35.3,0,87.7-4.1,120.8,5.9c31.5,9.6,60.4,27.4,90,41.1
		c36.1,3.7,76.3,10.7,113.2,19.6c11.8,3,17.1,8.2,20.5,15.2c3.8,7.4,5.7,14.5,7.6,18.9c3,0.4,3-0.4,3.8,1.1c1.1,1.9,0.4,4.1,0.8,7
		c0.4,6.3,0.4,14.8-1.1,20.8c-1.5,5.6-3,8.2-5.7,10.4c-2.3,1.5-4.6,2.6-7.6,3l-13.3,0.4c-8-1.5-6.5-2.6-6.1-12.2v-4.4
		c0-27.8-22.8-50-51.3-50c-28.5,0-51.3,22.2-51.3,50c0,3,0,5.6,0.4,8.2c1.1,16.7,2.7,13.7-12.9,14.5L165.9,153
		c-11.4-1.5-10.6,0-9.5-14.1c0.4-2.6,0.4-5.6,0.4-8.5c0-27.8-22.8-50-51.3-50s-51.3,22.2-51.3,50c0,2.2,0,4.8,0.4,7
		c0.8,11.5-2.3,10.4-10.3,10c-8-0.7-17.1-1.5-24.3-2.6c-5.7-1.1-9.9-2.2-11.8-3.7C2.5,136,3.3,119.7,3.3,111.2 M231.2,17.4
		c3,7.8,4.2,25.2,6.1,36.7c0.8,5.6,2.3,7,8,7c22.8,0.4,84.3,4.4,84.3,3.3c2.3-1.1,11-10.7,17.9-15.6c-15.2-10.7-37.2-22.6-57.3-29.3
		c-7.2-2.2-26.2-5.2-39.5-5.6l-17.1-0.4C230.4,13.7,230,15.2,231.2,17.4 M113.1,44.1c0.8,2.6,3.4,7.4,4.9,9.6
		c1.1,1.5,2.3,2.6,4.9,2.6c6.8,0.4,20.1,0.7,28.1,1.1c22,1.1,45.6,2.6,64.9,3c8,0,8.4,1.9,7.6-4.8c-3-25.2-3.8-33.7-6.1-39.6
		c-0.4-1.1-2.7-1.9-4.2-1.9l-30,0.4c-9.1,0-18.2,1.9-27.3,4.4c-1.5,0.4-4.2,1.5-7.6,3l-5.3,2.2c-11.4,5.2-25.8,12.6-28.1,15.6
		C112.3,41.5,112.3,42.3,113.1,44.1"/>
	<g>
		<path class="st1" d="M445,172.3c-0.8,0-1.6,0-2.4-0.1c-11.6-0.6-22.2-5.7-29.8-14.2c-7.4-8.3-11.1-18.9-10.5-29.8
			c1.3-23,21.6-40.6,45.1-39.4c11.6,0.6,22.2,5.7,29.8,14.2c7.4,8.3,11.1,18.9,10.5,29.8C486.4,155,467.5,172.3,445,172.3 M445,95.2
			c-19.1,0-35.1,14.6-36.2,33.3c-0.5,9.2,2.6,18.1,8.9,25.1c6.5,7.2,15.5,11.5,25.3,12c20,1.2,37.1-13.8,38.2-33.3
			c0.5-9.2-2.6-18.1-8.9-25.1c-6.5-7.2-15.5-11.5-25.3-12C446.3,95.2,445.6,95.2,445,95.2"/>
		<path class="st1" d="M105.5,172.3c-23.6,0-42.8-18.8-42.8-41.8c0-23,19.2-41.8,42.8-41.8c23.6,0,42.8,18.8,42.8,41.8
			C148.2,153.5,129,172.3,105.5,172.3 M105.5,95.2c-20,0-36.2,15.8-36.2,35.3s16.3,35.3,36.2,35.3c20,0,36.2-15.8,36.2-35.3
			S125.4,95.2,105.5,95.2"/>
		
			<rect x="270.2" y="35.4" transform="matrix(1.716421e-03 -1 1 1.716421e-03 129.9511 416.3777)" class="st1" width="6.5" height="215.3"/>
		<path class="st1" d="M502.4,150.8l-0.2-6.5l13.3-0.4c2.2-0.3,4-1.2,5.9-2.4c1.6-1.4,2.9-3.2,4.3-8.5c1.1-4.4,1.5-11.6,1-19.7
			c-0.1-1.1-0.1-2.3-0.1-3.3c0-0.6,0-1.2,0-1.6c-0.5,0-1-0.1-1.6-0.1l-1.9-0.2l-0.7-1.7c-0.7-1.6-1.3-3.5-2.1-5.6
			c-1.4-3.9-3-8.4-5.4-13.1c-2.6-5.3-6.5-10.5-18.4-13.5c-37.1-9-77.1-15.9-112.7-19.6l-1-0.3c-9.5-4.4-19.1-9.3-28.4-14
			c-19.7-10.1-40-20.5-61.2-26.9c-25.5-7.7-62.5-6.9-95.2-6.2c-8.7,0.2-17.1,0.4-24.6,0.4c-20.4,0-37.6,7.5-57.5,16.1l-1.5,0.7
			c-8.3,3.6-15.1,7.4-21.7,11c-8.1,4.5-15.7,8.8-24.3,11.3c-5.8,1.8-12.6,3.1-19.2,4.4C32.9,54.2,16,57.5,14.9,66.7
			c-1.4,12-2.1,25.2-2.8,36.8l-0.2,3.7c0,2.9-3,4.1-4.6,4.7c-0.2,0.1-0.5,0.2-0.7,0.3l0,1.7c-0.1,7.4-0.2,21.1,3.9,24.8
			c1.6,1.2,8.1,2.5,10.2,2.9c5.8,0.9,13.1,1.6,20.1,2.2l3.9,0.4l-0.6,6.5l-3.9-0.4c-7.1-0.6-14.4-1.3-20.6-2.3
			c-7.4-1.4-11.1-2.7-13.3-4.4c-5.9-5.4-6.3-17.2-6.2-29.9l0-2.7c0-3.4,3.2-4.6,4.9-5.3c0.1-0.1,0.3-0.1,0.5-0.2l0.1-2.5
			C6.2,91.4,7,78.1,8.4,66C10.1,52,29.3,48.2,48,44.5c6.7-1.3,13.1-2.6,18.6-4.3c7.9-2.4,14.9-6.3,23-10.8
			c6.4-3.6,13.7-7.6,22.2-11.3l1.5-0.7C133,8.9,151.7,0.8,173.4,0.8c7.5,0,15.8-0.2,24.5-0.4c33.2-0.7,70.7-1.6,97.2,6.4
			c21.7,6.6,42.3,17.2,62.3,27.4c9.1,4.6,18.4,9.4,27.7,13.7c35.7,3.7,75.8,10.7,113.1,19.7c11.6,2.9,18.3,8,22.7,16.9
			c2.6,5,4.3,9.9,5.7,13.8c0.4,1.2,0.8,2.3,1.2,3.3c1.9,0,3.3,0.5,4.4,2.8c1.1,1.8,1.1,3.8,1,5.5c0,0.8,0,1.6,0.1,2.6
			c0.3,5.3,0.6,15-1.2,22c-1.7,6.1-3.5,9.3-6.8,12.1c-2.5,1.7-5.3,3.2-9.3,3.7L502.4,150.8z M6.6,111.2L6.6,111.2L6.6,111.2z
			 M5.4,106.8c0,0.1,0,0.2,0,0.3L5.4,106.8z"/>
	</g>
</g>
</svg>
