<?xml version="1.0" encoding="utf-8"?>
<!-- Generator: Adobe Illustrator 23.0.1, SVG Export Plug-In . SVG Version: 6.00 Build 0)  -->
<svg version="1.1" id="Layer_1" xmlns="http://www.w3.org/2000/svg" xmlns:xlink="http://www.w3.org/1999/xlink" x="0px" y="0px"
	 viewBox="0 0 532.8 130.9" style="enable-background:new 0 0 532.8 130.9;" xml:space="preserve">
<style type="text/css">
	.st0{fill:#F3E820;}
	.st1{fill:#00698C;}
</style>
<g>
	<path class="st0" d="M527.2,75c-15.9-10.8-60-37.2-112.4-39.3c0,0-134.4-76.4-408,0L14.3,51l-0.7,17.6H2v5l2.4,8v10.2
		c0,0,20.3,20.4,54.7,18.9c0,0-13.5-63,43.3-65.9c47.9-2.4,51.7,53.4,41.6,66h245.4c0,0-20.7-56,35.1-63c0,0,56.9-1.4,39.7,63h53.3
		c6.8,0,10.8-7.3,7-12.8l-1.3-1.9l6.3-10.3C531.9,82.2,530.8,77.5,527.2,75 M364.5,45.6C298.7,41.6,153,24.5,154.2,23.8
		c1.1-0.7,48.2-13.2,48.2-13.2C323.7-1.8,402.4,39.3,402.4,39.3L364.5,45.6z"/>
	<g>
		<g>
			<path class="st1" d="M101.8,130.8c-23,0-41.8-18.2-41.8-40.5c0-22.3,18.8-40.5,41.8-40.5c23,0,41.8,18.1,41.8,40.5
				C143.6,112.7,124.8,130.8,101.8,130.8 M101.8,53.7c-21,0-38,16.4-38,36.7c0,20.2,17,36.7,38,36.7c20.9,0,38-16.4,38-36.7
				C139.7,70.2,122.7,53.7,101.8,53.7"/>
			<path class="st1" d="M420.9,130.9c-23.1,0-41.9-18.2-41.9-40.5c0-22.3,18.8-40.5,41.9-40.5c23.1,0,41.9,18.2,41.9,40.5
				C462.8,112.7,444,130.9,420.9,130.9 M420.9,53.8C400,53.8,383,70.2,383,90.4c0,20.2,17,36.6,37.9,36.6
				c20.9,0,37.9-16.4,37.9-36.6C458.8,70.2,441.8,53.8,420.9,53.8"/>
		</g>
		<path class="st1" d="M517.4,112.9h-37.3V109h37.3c2.4,0,4.6-1.2,5.7-3.3c1.1-2.1,1-4.5-0.3-6.4l-2-3l7-11.4
			c1.8-2.8,1.1-6.4-1.7-8.3c-16.3-11-59.8-36.8-111.3-39l-0.5,0l-0.4-0.2c-1.3-0.8-136.2-74.6-404.2-0.4l6.7,13.7l-0.8,19.9H4v2.8
			l2.4,8.3v9.4c3.5,3.1,22.7,19.1,52.6,17.8l0.2,3.9C24.3,114.3,3.8,94.1,3,93.2l-0.6-0.6V81.9L0,73.6v-7h11.6l0.6-15.2L4,34.4
			l2.3-0.6c263.5-73.5,400.2-4.8,409.1-0.1c52.4,2.3,96.5,28.5,113,39.7c4.5,3.1,5.7,9.1,2.8,13.5l-5.7,9.3l0.6,0.9
			c2.2,3.1,2.4,7,0.5,10.4C524.8,110.8,521.3,112.9,517.4,112.9 M373.3,112.9H159.8V109h213.5V112.9z"/>
	</g>
</g>
</svg>
